<svg fill="none" height="100" viewBox="0 0 100 100" width="100" xmlns="http://www.w3.org/2000/svg"><path clip-rule="evenodd" d="m50 0c-27.603 0-50 22.397-50 50s22.397 50 50 50c27.5488 0 50-22.397 50-50s-22.4512-50-50-50zm33.026 23.0477c5.9653 7.2668 9.5445 16.5402 9.653 26.5727-1.41-.2712-15.5098-3.1453-29.718-1.3558-.3254-.7049-.5966-1.4642-.9219-2.2234-.8677-2.0607-1.8439-4.1757-2.82-6.1822 15.7267-6.3991 22.885-15.6182 23.8069-16.8113zm-33.026-15.67243c10.846 0 20.7701 4.06723 28.308 10.73753-.7592 1.0846-7.2126 9.7072-22.3969 15.4013-6.9957-12.8525-14.7506-23.3731-15.9436-25 3.1995-.75922 6.5618-1.13883 10.0325-1.13883zm-18.167 4.01303c1.1388 1.5184 8.731 12.0933 15.8351 24.6746-19.9566 5.3145-37.5813 5.2061-39.47938 5.2061 2.76568-13.2321 11.71368-24.2408 23.64428-29.8807zm-24.56619 38.6659c0-.4338 0-.8676 0-1.3015 1.84382.0542 22.55969.3254 43.87199-6.0737 1.2473 2.3861 2.3861 4.8264 3.4707 7.2668-.5423.1627-1.1388.3254-1.6811.488-22.0173 7.1042-33.731 26.5185-34.7071 28.1454-6.7788-7.538-10.95449-17.5705-10.95449-28.525zm42.73319 42.679c-9.8698 0-18.9805-3.3623-26.1931-9.0022.7593-1.5726 9.4361-18.2755 33.5141-26.6811.1085-.0542.1627-.0542.2712-.1085 6.0195 15.564 8.4599 28.6334 9.1106 32.3753-5.1518 2.2234-10.7917 3.4165-16.7028 3.4165zm23.807-7.321c-.4339-2.6031-2.7115-15.076-8.2972-30.423 13.3948-2.115 25.1084 1.3557 26.5726 1.8438-1.8438 11.8763-8.6768 22.1258-18.2754 28.5792z" fill="#444" fill-rule="evenodd"/></svg>