<svg height="40" viewBox="0 0 262.042 70.578" width="260" xmlns="http://www.w3.org/2000/svg"><path d="m133.452 51.048a.129.129 0 0 0 -.03.019c-8.369 5.926-18.293 12.153-28.958 18.693l-.42.242a.316.316 0 0 0 .363.517l.359-.188c9.046-4.721 19.44-10.327 29.9-16.078.056-.032.114-.061.162-.091a12.91 12.91 0 0 1 -1.376-3.113m54.953-44.49c-13.194-14.555-98.118-1.46-134.231 6.43l-.846.182a.314.314 0 0 0 -.257.37.321.321 0 0 0 .37.26l.833-.165c29.921-5.327 92.142-12.713 105.532.563 4.085 4.048 3.111 9.271-1.627 15.426a12.233 12.233 0 0 1 5.2 7.449c18.488-12.3 30.91-24.027 25.031-30.515" fill="#be0c1c"/><g fill="#002f49"><path d="m193.56 41.677c-.045-1.322-.7-2.209-2.075-2.209-3.289 0-6.785 6.441-7.389 9.042 5.4 0 9.594-3.217 9.464-6.833m.7 10.1.636.43c-1.6 3.269-4.871 5.9-8.709 5.9-3.139 0-5.716-2.09-5.85-6.019-.257-7.028 6.333-13.564 11.731-13.564 2.311 0 4.459 1.015 4.554 3.507.2 5.589-7.655 7.3-12.832 7.417a6.491 6.491 0 0 0 -.2 2.068 4.123 4.123 0 0 0 4.392 4.267c2.5 0 5.011-2.019 6.276-4.005"/><path d="m162.14 41.474a17.537 17.537 0 0 1 1.789-.154c.591 0 1.145.113 1.179.7.006.344-.623 2.841-.753 3.418l-1.25 5.513c-.5 2.265-1.051 4.625-1.539 6.493h3.213l1.807-8.743c5.511-5.742 7.635-7.614 8.934-7.614a.936.936 0 0 1 1.021 1.008 17.512 17.512 0 0 1 -.811 3.966l-1.85 6.37a13.255 13.255 0 0 0 -.7 3.652 1.928 1.928 0 0 0 2.159 2.016c2.352 0 4.055-2.443 5.544-4.847l-.48-.7c-.6.965-1.95 2.988-3.051 2.988-.349 0-.677-.231-.688-.813a9.536 9.536 0 0 1 .5-2.6l2.047-7.467a18.564 18.564 0 0 0 .8-4.083 1.913 1.913 0 0 0 -2.109-2.047c-2.116 0-4.927 1.545-10.872 8.39h-.086l.749-3.338c.405-1.83.805-3.736 1.192-5.052a52.061 52.061 0 0 1 -6.772 1.9z"/><path d="m138.793 47.223c.171 5.123 3.41 9.319 7.637 9.319 8.193 0 11.673-10.057 11.434-16.777-.171-5.136-3.5-9.325-7.722-9.325-7.04 0-11.591 10.022-11.348 16.783m-4.332-.271c-.3-8.741 6.547-17.681 16.5-17.681 6.653 0 11 4.433 11.247 11.221.318 9.223-6.076 17.687-16.493 17.687-6.653 0-11.008-4.427-11.251-11.227m-5.102 5.262-8.168.013 4.106-22.895 7.96.223zm-16.786-7.533c-.361.121-.827.255-1.393.385s-1.6.3-3.118.548a5.29 5.29 0 0 0 -2.159.675 1.679 1.679 0 0 0 -.7 1.056 1.038 1.038 0 0 0 .459 1.091 3.7 3.7 0 0 0 2.021.413 6.9 6.9 0 0 0 2.055-.312 5.039 5.039 0 0 0 1.7-.9 2.827 2.827 0 0 0 .716-1.064 15.746 15.746 0 0 0 .42-1.891m8.642-5.389a19.785 19.785 0 0 1 -.394 2.737l-1.456 8.222a1.538 1.538 0 0 0 .815 1.7l-.047.283-8.373.019-.069-2.1a16.181 16.181 0 0 1 -4.024 1.718 14.226 14.226 0 0 1 -4.027.495c-2.706 0-4.247-.269-5.32-1.214-1.09-.973-1.618-1.608-1.556-2.936a4.335 4.335 0 0 1 1.008-2.436 6.181 6.181 0 0 1 2.235-1.56 12.541 12.541 0 0 1 3.349-.954c1.491-.231 3.555-.483 6.322-.712a9.4 9.4 0 0 0 2.735-.606c.586-.227.816-.48.9-.95.147-.827-.113-1.32-1.229-1.547-3.033-.6-8.676.387-11.591 1.112l1.577-4.275a76.375 76.375 0 0 1 11.246-.924c6.024 0 7.947 1.727 7.9 3.929m-32.708-3.573.576-3.341 8.384-1.826-.889 5.167h4.109l-.779 3.306-3.985-.009-2.421 13.2s-8.083-.052-8.111 0l2.41-13.166h-3.044l.619-3.327zm-15.351 16.505 2.906-16.411h8.018l-2.9 16.411zm3.351-20.21c.238-1.348 2.369-2.441 4.749-2.441s4.122 1.093 3.89 2.441c-.255 1.35-2.374 2.449-4.762 2.449s-4.119-1.1-3.877-2.449m-13.96 7.644a4.641 4.641 0 0 0 -2.851.958 4.282 4.282 0 0 0 -1.582 2.81 3.585 3.585 0 0 0 .463 3.094 3.158 3.158 0 0 0 2.475.95 4.747 4.747 0 0 0 2.043-.409 4.021 4.021 0 0 0 1.571-1.35 5.441 5.441 0 0 0 .882-2.162 3.252 3.252 0 0 0 -.567-2.908 3.075 3.075 0 0 0 -2.434-.982m-14.606 18.228 3.9-21.991h7.04l-.541 2.808a6.649 6.649 0 0 1 2.932-2.088 12.056 12.056 0 0 1 4.55-.967 8.477 8.477 0 0 1 4.351.809 5.821 5.821 0 0 1 2.839 3.115 8.168 8.168 0 0 1 .355 4.468 9.694 9.694 0 0 1 -3.966 6.417 12.439 12.439 0 0 1 -9.323 1.725 5.536 5.536 0 0 1 -1.6-.642 7.5 7.5 0 0 1 -1.324-1.192l-1.311 7.538zm-7.714-13.245a10.627 10.627 0 0 1 -1.383.383c-.569.128-1.61.314-3.116.549a5.474 5.474 0 0 0 -2.164.675 1.621 1.621 0 0 0 -.69 1.062 1.038 1.038 0 0 0 .456 1.094 3.633 3.633 0 0 0 2.006.42 6.806 6.806 0 0 0 2.064-.327 4.946 4.946 0 0 0 1.69-.9 2.667 2.667 0 0 0 .727-1.054 15.307 15.307 0 0 0 .411-1.9m8.646-5.377a20.91 20.91 0 0 1 -.389 2.728l-1.463 8.217a1.511 1.511 0 0 0 .822 1.69l-.047.325-8.378-.013-.071-2.094a16.531 16.531 0 0 1 -4.027 1.722 14.678 14.678 0 0 1 -4.012.491c-2.7 0-4.26-.275-5.327-1.216-1.09-.969-1.614-1.61-1.56-2.94a4.5 4.5 0 0 1 1.015-2.436 6.1 6.1 0 0 1 2.23-1.554 11.627 11.627 0 0 1 3.36-.945c1.482-.245 3.544-.485 6.309-.714a9.094 9.094 0 0 0 2.752-.625c.576-.223.8-.467.889-.941.154-.844-.115-1.324-1.237-1.547-3.016-.595-8.67.383-11.591 1.114l1.588-4.275a77.18 77.18 0 0 1 11.244-.92c6.026 0 7.957 1.718 7.9 3.933m-25.556 7.056a29.342 29.342 0 0 1 -6.66.718c-3.832 0-6.878-1.9-6.714-5.392.119-2.321 2.869-7.22 9.858-7.22a11.422 11.422 0 0 1 6.236 1.707l1.015-5.7a19.25 19.25 0 0 0 -7.929-1.341c-9.161.1-17.965 4.267-19.057 12.739-1.11 8.609 9.4 10.769 14.072 10.751 2.694-.009 5.5-.115 8.11-.39z"/><path d="m216.027 57.513a3.267 3.267 0 0 1 -2.818-1.274 8.073 8.073 0 0 1 0-7.64 3.266 3.266 0 0 1 2.818-1.275 7.218 7.218 0 0 1 3.036.7l.147.068v-.912l-.057-.028a7.114 7.114 0 0 0 -3.216-.748 4.268 4.268 0 0 0 -3.529 1.6 8.362 8.362 0 0 0 0 8.829 4.268 4.268 0 0 0 3.529 1.6 7.209 7.209 0 0 0 3.259-.748l.057-.028v-.918l-.147.069a7.289 7.289 0 0 1 -3.079.705zm15.455-10.032-.094-.021zm-.309-.064-.085-.013zm-.759-1.015a8.458 8.458 0 0 0 -1.9.236 8.187 8.187 0 0 0 -1.785.623l-.057.028v.922l.149-.073a8.568 8.568 0 0 1 1.741-.606 8 8 0 0 1 1.832-.235 3.447 3.447 0 0 1 2.358.747 2.817 2.817 0 0 1 .814 2.188v1.619l-.072-.011a20.956 20.956 0 0 0 -3.105-.305 5.15 5.15 0 0 0 -3.244.882 3.147 3.147 0 0 0 -1.121 2.613 3.219 3.219 0 0 0 1 2.5 3.973 3.973 0 0 0 2.758.908 7.254 7.254 0 0 0 1.924-.261 9.335 9.335 0 0 0 1.808-.728l.083-.042.008.092.055.66.957-.111v-7.79a3.692 3.692 0 0 0 -1.094-2.855 4.472 4.472 0 0 0 -3.109-1.001zm3.154 6.356v3.795l-.033.018a7.558 7.558 0 0 1 -3.568.966c-1.927 0-2.864-.827-2.864-2.529a2.32 2.32 0 0 1 .819-1.96 4.3 4.3 0 0 1 2.6-.636 17.421 17.421 0 0 1 2.991.286l.051.009zm-2.792-5.386h-.054zm-.434-.011h.06zm1.414.189-.071-.021zm-2.197-.135-.086.012zm.482-.043h-.089zm-.906.107-.117.021zm3.181.322-.072-.041zm.213.137-.062-.042zm-.471-.269-.049-.023zm13.932-6.89c-2.038 0-3.071 1.116-3.071 3.317v2.642h-.059l-1.636.064v.807h1.7v10.487h1.055v-10.483h3.1v-.875h-3.1v-2.752a2.629 2.629 0 0 1 .487-1.761 1.981 1.981 0 0 1 1.551-.545 4.964 4.964 0 0 1 1.487.241l.134.042v-.886l-.071-.024a4.968 4.968 0 0 0 -1.577-.274zm13.156 1.048-2.674 3.154h1.094l2.962-3.154zm1.753 5.837a4.01 4.01 0 0 0 -3.111-1.262 4.247 4.247 0 0 0 -3.473 1.623 6.71 6.71 0 0 0 -1.294 4.3 6.848 6.848 0 0 0 1.33 4.542 4.846 4.846 0 0 0 3.884 1.564 7.21 7.21 0 0 0 3.259-.748l.057-.028v-.922l-.15.075a6.929 6.929 0 0 1 -3.122.724c-2.794 0-4.169-1.612-4.2-4.928v-.063h7.839l.014-.087a8.6 8.6 0 0 0 .113-1.4 4.876 4.876 0 0 0 -1.146-3.39zm.081 3.971-.005.056h-6.9v-.064a5.091 5.091 0 0 1 1.052-3.113 3.234 3.234 0 0 1 2.632-1.212 3 3 0 0 1 2.4.979 4.158 4.158 0 0 1 .845 2.778c.005.174-.005.368-.024.575z"/></g></svg>