<svg xmlns="http://www.w3.org/2000/svg" viewBox="0 0 95.99 26.95"><defs><style>.cls-1,.cls-3,.cls-4,.cls-5,.cls-6,.cls-8{fill:#fff;}.cls-2{fill:#54b948;}.cls-3,.cls-4,.cls-5,.cls-6,.cls-8{stroke:#fff;}.cls-3,.cls-4,.cls-5,.cls-6,.cls-7{stroke-linecap:round;stroke-linejoin:round;}.cls-3{stroke-width:0.87px;}.cls-4{stroke-width:0.88px;}.cls-5,.cls-7{stroke-width:0.18px;}.cls-6{stroke-width:0.37px;}.cls-7{fill:none;stroke:#945d92;}.cls-8{stroke-width:0.18px;}</style></defs><title>Asset 1</title><g id="Layer_2" data-name="Layer 2"><g id="Layer_2-2" data-name="Layer 2"><path class="cls-1" d="M23.75,8.64A10.23,10.23,0,1,1,12.18,1.45l.44-.07S17.4.93,22.84,0a74.62,74.62,0,0,0,.79,8.21Z" transform="translate(-0.16)"/><path class="cls-2" d="M26.31,5.45a4.75,4.75,0,1,1-5.37-3.34l.2,0s2.22-.21,4.75-.64c0,0,.15,2.66.35,3.61Z" transform="translate(-0.16)"/><path class="cls-3" d="M37.5,8.88H42v6.44a10.86,10.86,0,0,1-4.87,1.22,6.73,6.73,0,0,1-5.27-2.2,7.86,7.86,0,0,1-2-5.44,8.14,8.14,0,0,1,2-5.67A6.62,6.62,0,0,1,37,1a8,8,0,0,1,2.13.28,16.1,16.1,0,0,1,2.55,1V4.48A8.49,8.49,0,0,0,37,2.9a4.7,4.7,0,0,0-3.67,1.7,6.09,6.09,0,0,0-1.49,4.17A6.05,6.05,0,0,0,33.31,13a5,5,0,0,0,3.84,1.64,8,8,0,0,0,2.73-.6l.18-.07V10.81H37.5Z" transform="translate(-0.16)"/><path class="cls-4" d="M55.06,11H47.27a3.62,3.62,0,0,0,1.07,2.53,3.52,3.52,0,0,0,2.54.94,6.6,6.6,0,0,0,4-1.35v2.14a7.33,7.33,0,0,1-2,1,8.39,8.39,0,0,1-2.33.29,5.24,5.24,0,0,1-3-.76,5.53,5.53,0,0,1-1.81-2,6.25,6.25,0,0,1-.68-3,5.9,5.9,0,0,1,1.43-4.11,4.78,4.78,0,0,1,3.72-1.58A4.39,4.39,0,0,1,53.75,6.6a6.17,6.17,0,0,1,1.31,4.13ZM47.32,9.7H52.9a3.06,3.06,0,0,0-.78-2A2.52,2.52,0,0,0,50.23,7a2.7,2.7,0,0,0-1.93.71A3.52,3.52,0,0,0,47.32,9.7Z" transform="translate(-0.16)"/><path class="cls-4" d="M60.06,5.27V6.69A4.4,4.4,0,0,1,63.4,5.06a3.69,3.69,0,0,1,1.93.53,3.51,3.51,0,0,1,1.35,1.47,7,7,0,0,1,.46,3v6.34H65V10a4.32,4.32,0,0,0-.52-2.43,2,2,0,0,0-1.74-.73,3.16,3.16,0,0,0-2.64,1.55v7.91H57.82V5.27Z" transform="translate(-0.16)"/><path class="cls-4" d="M77.45,16.36V14.94a5.13,5.13,0,0,1-1.6,1.19,4.15,4.15,0,0,1-1.79.42A3.73,3.73,0,0,1,72.13,16,3.4,3.4,0,0,1,70.8,14.6a7.12,7.12,0,0,1-.45-3V5.27h2.19v6.32A4.35,4.35,0,0,0,73,14a2,2,0,0,0,1.75.69,3.21,3.21,0,0,0,2.66-1.53V5.27h2.19V16.36Z" transform="translate(-0.16)"/><path class="cls-4" d="M82.19,15.56V13.2a9.86,9.86,0,0,0,1.9,1.05,4.41,4.41,0,0,0,1.63.4,2.05,2.05,0,0,0,1.18-.34,1,1,0,0,0,.49-.81,1.09,1.09,0,0,0-.32-.8,7.45,7.45,0,0,0-1.38-.92,9.75,9.75,0,0,1-2.78-2A2.89,2.89,0,0,1,82.26,8a2.57,2.57,0,0,1,1-2.08,3.93,3.93,0,0,1,2.56-.81A7,7,0,0,1,89.15,6V8.14A6.69,6.69,0,0,0,86,7a1.77,1.77,0,0,0-1,.27.83.83,0,0,0-.39.72,1,1,0,0,0,.35.74,6,6,0,0,0,1.25.84l.78.45q2.77,1.57,2.77,3.47a2.76,2.76,0,0,1-1.06,2.23,4.19,4.19,0,0,1-2.74.87,6.67,6.67,0,0,1-1.76-.21A11.78,11.78,0,0,1,82.19,15.56Z" transform="translate(-0.16)"/><path class="cls-1" d="M37.5,8.88H42v6.44a10.85,10.85,0,0,1-4.87,1.22,6.73,6.73,0,0,1-5.27-2.2,7.86,7.86,0,0,1-2-5.44,8.15,8.15,0,0,1,2-5.67A6.62,6.62,0,0,1,37,1a8,8,0,0,1,2.13.28,16.1,16.1,0,0,1,2.55,1V4.48A8.5,8.5,0,0,0,37,2.9a4.7,4.7,0,0,0-3.67,1.7,6.09,6.09,0,0,0-1.49,4.17A6.05,6.05,0,0,0,33.31,13a5,5,0,0,0,3.84,1.64,8,8,0,0,0,2.73-.6l.18-.07V10.81H37.5Z" transform="translate(-0.16)"/><path class="cls-1" d="M55.06,11H47.27a3.61,3.61,0,0,0,1.07,2.53,3.51,3.51,0,0,0,2.54.94,6.59,6.59,0,0,0,4-1.35v2.14a7.3,7.3,0,0,1-2,1,8.39,8.39,0,0,1-2.33.29,5.24,5.24,0,0,1-3-.76,5.54,5.54,0,0,1-1.81-2,6.26,6.26,0,0,1-.68-3,5.9,5.9,0,0,1,1.43-4.12,4.79,4.79,0,0,1,3.72-1.58A4.39,4.39,0,0,1,53.75,6.6a6.17,6.17,0,0,1,1.31,4.13ZM47.32,9.7H52.9a3.07,3.07,0,0,0-.78-2A2.52,2.52,0,0,0,50.23,7a2.71,2.71,0,0,0-1.93.71A3.52,3.52,0,0,0,47.32,9.7Z" transform="translate(-0.16)"/><path class="cls-1" d="M60.06,5.28V6.69A4.41,4.41,0,0,1,63.4,5.06a3.67,3.67,0,0,1,1.93.54,3.49,3.49,0,0,1,1.35,1.47,7,7,0,0,1,.46,3v6.34H65V10a4.33,4.33,0,0,0-.52-2.43,2,2,0,0,0-1.74-.73,3.16,3.16,0,0,0-2.64,1.55v7.91H57.82V5.28Z" transform="translate(-0.16)"/><path class="cls-1" d="M77.45,16.36V14.94a5.11,5.11,0,0,1-1.6,1.19,4.14,4.14,0,0,1-1.79.42A3.73,3.73,0,0,1,72.13,16a3.39,3.39,0,0,1-1.34-1.42,7.13,7.13,0,0,1-.45-3V5.28h2.19v6.32A4.35,4.35,0,0,0,73,14a2,2,0,0,0,1.75.69,3.2,3.2,0,0,0,2.66-1.53V5.28h2.19V16.36Z" transform="translate(-0.16)"/><path class="cls-1" d="M82.19,15.56V13.2a9.91,9.91,0,0,0,1.9,1.05,4.41,4.41,0,0,0,1.63.4,2,2,0,0,0,1.18-.34,1,1,0,0,0,.49-.81,1.09,1.09,0,0,0-.32-.8,7.38,7.38,0,0,0-1.38-.92,9.75,9.75,0,0,1-2.78-2A2.89,2.89,0,0,1,82.26,8a2.57,2.57,0,0,1,1-2.08,3.94,3.94,0,0,1,2.56-.81A7,7,0,0,1,89.15,6V8.14A6.7,6.7,0,0,0,86,7a1.77,1.77,0,0,0-1,.27.84.84,0,0,0-.39.72,1,1,0,0,0,.35.74,6.13,6.13,0,0,0,1.25.84l.78.45q2.77,1.56,2.77,3.47a2.76,2.76,0,0,1-1.06,2.23,4.18,4.18,0,0,1-2.74.87,6.71,6.71,0,0,1-1.76-.21A11.72,11.72,0,0,1,82.19,15.56Z" transform="translate(-0.16)"/><path class="cls-1" d="M42.68,19.89v4.49h-.62V21l-1.88,3.42-.82-3.44L38.2,24.38h-.62l1.54-4.49h.54l.73,3,1.67-3Z" transform="translate(-0.16)"/><path class="cls-1" d="M46.06,23.6l-.08.53a1.74,1.74,0,0,1-1,.33,1.2,1.2,0,0,1-.93-.39,1.5,1.5,0,0,1-.35-1,1.8,1.8,0,0,1,.42-1.22,1.32,1.32,0,0,1,1-.49,1,1,0,0,1,.78.35,1.28,1.28,0,0,1,.31.89,2.07,2.07,0,0,1,0,.28H44.28a1.62,1.62,0,0,0,0,.28.88.88,0,0,0,.23.64.78.78,0,0,0,.58.24A1.83,1.83,0,0,0,46.06,23.6Zm-1.7-1.15h1.29a.75.75,0,0,0-.15-.49.5.5,0,0,0-.41-.18Q44.6,21.79,44.37,22.45Z" transform="translate(-0.16)"/><path class="cls-1" d="M49.93,19.89l-.66,4.49a3,3,0,0,1-.79.09,1.8,1.8,0,0,1-1.2-.36,1.26,1.26,0,0,1-.42-1,1.72,1.72,0,0,1,.55-1.21,2,2,0,0,1,1.48-.56h.24l.21-1.44ZM48.75,24l.32-2.2h-.15a1.47,1.47,0,0,0-1.05.38,1.21,1.21,0,0,0-.4.91.87.87,0,0,0,.26.68,1.08,1.08,0,0,0,.75.24Z" transform="translate(-0.16)"/><path class="cls-1" d="M51.29,21.42l-.43,3h-.58l.43-3Zm-.52-.92a.31.31,0,0,1,.1-.23.34.34,0,0,1,.47,0,.31.31,0,0,1,0,.46.34.34,0,0,1-.47,0A.31.31,0,0,1,50.78,20.49Z" transform="translate(-0.16)"/><path class="cls-1" d="M54.11,23.72l-.07.54a1.8,1.8,0,0,1-.86.21,1.33,1.33,0,0,1-1-.37,1.34,1.34,0,0,1-.37-1,1.65,1.65,0,0,1,.56-1.26,2,2,0,0,1,1.43-.51,3.29,3.29,0,0,1,.53.05l-.08.5a2,2,0,0,0-.44,0,1.41,1.41,0,0,0-1,.37,1.16,1.16,0,0,0-.4.87.92.92,0,0,0,.23.66.81.81,0,0,0,.62.24A1.66,1.66,0,0,0,54.11,23.72Z" transform="translate(-0.16)"/><path class="cls-1" d="M57.6,21.42l-.43,3h-.58l.06-.34v0a1.17,1.17,0,0,1-.83.41.92.92,0,0,1-.72-.34,1.23,1.23,0,0,1-.29-.83,1.87,1.87,0,0,1,.55-1.39,2.08,2.08,0,0,1,1.54-.55A2.73,2.73,0,0,1,57.6,21.42Zm-.89,2.1L57,21.81h-.18a1.29,1.29,0,0,0-1,.42,1.41,1.41,0,0,0-.36.94.94.94,0,0,0,.17.58A.53.53,0,0,0,56,24a.77.77,0,0,0,.46-.2C56.63,23.64,56.71,23.56,56.72,23.52Z" transform="translate(-0.16)"/><path class="cls-1" d="M59.41,19.89l-.66,4.49h-.58l.66-4.49Z" transform="translate(-0.16)"/><path class="cls-1" d="M64.5,19.89l-.08.56H63.1l-.58,3.93h-.64l.58-3.93H61.14l.08-.56Z" transform="translate(-0.16)"/><path class="cls-1" d="M66.4,23.6l-.08.53a1.74,1.74,0,0,1-1,.33,1.2,1.2,0,0,1-.93-.39A1.49,1.49,0,0,1,64,23a1.8,1.8,0,0,1,.42-1.22,1.31,1.31,0,0,1,1-.49,1,1,0,0,1,.78.35,1.28,1.28,0,0,1,.31.89,1.92,1.92,0,0,1,0,.28H64.61a1.53,1.53,0,0,0,0,.28.88.88,0,0,0,.23.64.79.79,0,0,0,.58.24A1.83,1.83,0,0,0,66.4,23.6Zm-1.7-1.15H66a.75.75,0,0,0-.15-.49.5.5,0,0,0-.41-.18Q64.93,21.79,64.7,22.45Z" transform="translate(-0.16)"/><path class="cls-1" d="M69.44,23.72l-.07.54a1.8,1.8,0,0,1-.86.21,1.33,1.33,0,0,1-1-.37,1.34,1.34,0,0,1-.37-1,1.65,1.65,0,0,1,.56-1.26,2,2,0,0,1,1.43-.51,3.3,3.3,0,0,1,.53.05l-.08.5a2,2,0,0,0-.44,0,1.42,1.42,0,0,0-1,.37,1.16,1.16,0,0,0-.4.87.92.92,0,0,0,.23.66.81.81,0,0,0,.62.24A1.66,1.66,0,0,0,69.44,23.72Z" transform="translate(-0.16)"/><path class="cls-1" d="M71.4,19.89l-.29,2h0a1.46,1.46,0,0,1,1.07-.58.65.65,0,0,1,.53.22.88.88,0,0,1,.19.59,1.4,1.4,0,0,1,0,.22l-.29,2H72l.29-2a1.11,1.11,0,0,0,0-.14c0-.29-.12-.43-.36-.43a.92.92,0,0,0-.59.32,1.82,1.82,0,0,0-.34.38l-.28,1.92h-.58l.66-4.49Z" transform="translate(-0.16)"/><path class="cls-1" d="M74.7,21.42l-.08.52h0a1.37,1.37,0,0,1,1-.58.66.66,0,0,1,.55.25,1,1,0,0,1,.2.65,1.52,1.52,0,0,1,0,.23l-.29,1.86h-.57l.28-1.88a1.14,1.14,0,0,0,0-.18.55.55,0,0,0-.1-.35.32.32,0,0,0-.25-.12.54.54,0,0,0-.2,0A1.08,1.08,0,0,0,75,22a2.63,2.63,0,0,0-.31.26.74.74,0,0,0-.19.22l-.28,1.88h-.57l.43-3Z" transform="translate(-0.16)"/><path class="cls-1" d="M78.67,21.33a1.05,1.05,0,0,1,.83.35,1.36,1.36,0,0,1,.31.94,2,2,0,0,1-.42,1.33,1.28,1.28,0,0,1-1,.52,1.07,1.07,0,0,1-.85-.35,1.43,1.43,0,0,1-.31-1,2,2,0,0,1,.42-1.3A1.3,1.3,0,0,1,78.67,21.33Zm0,.44a.73.73,0,0,0-.62.43,1.9,1.9,0,0,0-.26,1,1,1,0,0,0,.16.57.46.46,0,0,0,.39.22.74.74,0,0,0,.62-.4,1.81,1.81,0,0,0,.26-1,1,1,0,0,0-.15-.59A.46.46,0,0,0,78.67,21.77Z" transform="translate(-0.16)"/><path class="cls-1" d="M81.67,19.89,81,24.38h-.58l.66-4.49Z" transform="translate(-0.16)"/><path class="cls-1" d="M83.53,21.33a1.05,1.05,0,0,1,.83.35,1.36,1.36,0,0,1,.31.94,2,2,0,0,1-.42,1.33,1.28,1.28,0,0,1-1,.52,1.07,1.07,0,0,1-.85-.35,1.43,1.43,0,0,1-.31-1,2,2,0,0,1,.42-1.3A1.3,1.3,0,0,1,83.53,21.33Zm0,.44a.73.73,0,0,0-.62.43,1.9,1.9,0,0,0-.26,1,1,1,0,0,0,.16.57.46.46,0,0,0,.39.22.74.74,0,0,0,.62-.4,1.81,1.81,0,0,0,.26-1,1,1,0,0,0-.15-.59A.46.46,0,0,0,83.53,21.77Z" transform="translate(-0.16)"/><path class="cls-1" d="M88.11,21.42l-.06.44h-.59a1,1,0,0,1,.2.58,1.17,1.17,0,0,1-.17.62.94.94,0,0,1-.4.38,2.51,2.51,0,0,1-.62.18,1.56,1.56,0,0,0-.48.13.19.19,0,0,0-.1.16A.15.15,0,0,0,86,24a3.15,3.15,0,0,0,.63.18,1.62,1.62,0,0,1,.76.34.67.67,0,0,1,.22.5.71.71,0,0,1-.35.6,1.56,1.56,0,0,1-.9.24,1.9,1.9,0,0,1-1-.22.63.63,0,0,1-.38-.55q0-.43.89-.61-.53-.19-.54-.52a.43.43,0,0,1,.16-.32,1.08,1.08,0,0,1,.44-.23.87.87,0,0,1-.55-.85,1.15,1.15,0,0,1,.34-.84,1.1,1.1,0,0,1,.81-.34Zm-1.74,4a1,1,0,0,0,.47-.1A.31.31,0,0,0,87,25.1c0-.11-.1-.2-.29-.29a1.26,1.26,0,0,0-.39-.13,1.53,1.53,0,0,0-.46.13q-.33.13-.33.3c0,.11.07.2.22.26A1.55,1.55,0,0,0,86.37,25.47Zm.13-2.31a.53.53,0,0,0,.43-.21.74.74,0,0,0,.17-.48.6.6,0,0,0-.16-.43.51.51,0,0,0-.39-.17.55.55,0,0,0-.42.21.69.69,0,0,0-.19.48.61.61,0,0,0,.16.43A.52.52,0,0,0,86.5,23.16Z" transform="translate(-0.16)"/><path class="cls-1" d="M89.41,21.42l-.43,3H88.4l.43-3Zm-.52-.92a.31.31,0,0,1,.1-.23.34.34,0,0,1,.47,0,.31.31,0,0,1,0,.46.34.34,0,0,1-.47,0A.31.31,0,0,1,88.89,20.49Z" transform="translate(-0.16)"/><path class="cls-1" d="M92.44,23.6l-.08.53a1.74,1.74,0,0,1-1,.33,1.2,1.2,0,0,1-.93-.39A1.49,1.49,0,0,1,90,23a1.8,1.8,0,0,1,.42-1.22,1.31,1.31,0,0,1,1-.49,1,1,0,0,1,.78.35,1.28,1.28,0,0,1,.31.89,1.92,1.92,0,0,1,0,.28H90.65a1.53,1.53,0,0,0,0,.28.88.88,0,0,0,.23.64.79.79,0,0,0,.58.24A1.83,1.83,0,0,0,92.44,23.6Zm-1.7-1.15H92a.75.75,0,0,0-.15-.49.5.5,0,0,0-.41-.18Q91,21.79,90.74,22.45Z" transform="translate(-0.16)"/><path class="cls-1" d="M95.24,21.64v.58a1.66,1.66,0,0,0-.93-.39.47.47,0,0,0-.3.09.27.27,0,0,0-.12.22.29.29,0,0,0,.08.18,2.53,2.53,0,0,0,.47.35,1.82,1.82,0,0,1,.54.47.8.8,0,0,1,.14.44.82.82,0,0,1-.27.64,1,1,0,0,1-.68.25,1.87,1.87,0,0,1-1.07-.39l.1-.54a1.72,1.72,0,0,0,.95.44.43.43,0,0,0,.29-.09.29.29,0,0,0,.11-.24.37.37,0,0,0-.08-.22,2.29,2.29,0,0,0-.48-.37,1.76,1.76,0,0,1-.52-.47.8.8,0,0,1,.14-1,1,1,0,0,1,.7-.23A1.7,1.7,0,0,1,95.24,21.64Z" transform="translate(-0.16)"/><path class="cls-5" d="M21,20.53A11.27,11.27,0,0,1,2.51,11.9a11.26,11.26,0,0,1,.16-2h0A10.66,10.66,0,0,0,2,13.35a10.88,10.88,0,0,0,11,10.8,11,11,0,0,0,8.14-3.57Z" transform="translate(-0.16)"/><path class="cls-6" d="M19.4,23.14A11.27,11.27,0,0,1,.88,14.51a11.25,11.25,0,0,1,.16-2H1A10.62,10.62,0,0,0,.35,16a10.88,10.88,0,0,0,11,10.8,11,11,0,0,0,8.14-3.57Z" transform="translate(-0.16)"/><path class="cls-7" d="M0,9" transform="translate(-0.16)"/><path class="cls-8" d="M92.82,3.33h-.89V5.39H91.2V3.33h-.89V2.67h2.5Z" transform="translate(-0.16)"/><path class="cls-8" d="M96.07,5.39h-.73V3.81l-.66.91h-.06L94,3.81V5.39h-.71V2.67h.66l.74,1,.75-1h.66Z" transform="translate(-0.16)"/></g></g></svg>