<?xml version="1.0" encoding="UTF-8"?>
<svg width="284px" height="30px" viewBox="0 0 284 30" version="1.1" xmlns="http://www.w3.org/2000/svg" xmlns:xlink="http://www.w3.org/1999/xlink">
    <title>McCombs Lockup</title>
    <defs>
        <filter color-interpolation-filters="auto" id="filter-1">
            <feColorMatrix in="SourceGraphic" type="matrix" values="0 0 0 0 1.000000 0 0 0 0 1.000000 0 0 0 0 1.000000 0 0 0 1.000000 0"></feColorMatrix>
        </filter>
    </defs>
    <g id="Organisms" stroke="none" stroke-width="1" fill="none" fill-rule="evenodd">
        <g id="O/1.Navigation/Footer/Desktop" transform="translate(-576.000000, -71.000000)">
            <g id="Group" transform="translate(576.000000, 71.000000)">
                <g filter="url(#filter-1)" opacity="0.99">
                    <g>
                        <polygon id="Path" fill="#BF5700" fill-rule="nonzero" points="11.65 10.04 11.68 10.04 11.68 10.03 11.65 10.03 11.65 10.04"></polygon>
                        <path d="M14.68,7.52 C14.0956478,7.4120379 13.503953,7.34852264 12.91,7.33 C12.6511648,7.32811199 12.3929188,7.35494274 12.14,7.41 L12,3.88 L12,3.29 C12.3008348,3.18025897 12.6199516,3.12933607 12.94,3.14 C13.4933293,3.15755885 14.0447146,3.21436825 14.59,3.31 C15.12,3.39 15.66,3.47 16.21,3.5 L16.36,7.72 C15.7934473,7.6841327 15.2292747,7.61736672 14.67,7.52 L14.68,7.52 Z M8.68,7.52 C8.11728339,7.61678303 7.54981392,7.68354414 6.98,7.72 L7.13,3.5 C7.69,3.5 8.23,3.39 8.76,3.31 C9.30521965,3.21389602 9.85663881,3.15708314 10.41,3.14 C10.7299863,3.13031606 11.0489192,3.1812096 11.35,3.29 L11.35,3.88 L11.22,7.41 C10.966992,7.35550117 10.7088077,7.32867683 10.45,7.33 C9.85604697,7.34852264 9.26435218,7.4120379 8.68,7.52 L8.68,7.52 Z M17.68,5.03 L17.68,4.22 L17.19,4.22 L17.19,2.85 L16.85,2.85 C16.1493886,2.8343843 15.450858,2.76753926 14.76,2.65 C14.1782397,2.54909585 13.590142,2.48894948 13,2.47 C12.5566458,2.45494358 12.1156323,2.54041133 11.71,2.72 C11.3079555,2.54022559 10.870142,2.45471513 10.43,2.47 C9.8432029,2.48941279 9.25846261,2.5495575 8.68,2.65 C7.9857843,2.7675648 7.28392742,2.83440831 6.58,2.85 L6.2,2.85 L6.2,4.22 L5.7,4.22 L5.7,5 L6.2,5 L6.2,6.08 L5.71,6.08 L5.71,6.89 L6.2,6.89 L6.2,8.38 L6.53,8.38 C7.27477442,8.35993407 8.01693051,8.28304402 8.75,8.15 C9.30258742,8.061917 9.86056078,8.01179963 10.42,8 C10.7354757,7.98778442 11.0497219,8.04585165 11.34,8.17 L12,8.17 C12.2899816,8.04487337 12.6044515,7.9867648 12.92,8 C13.4801293,8.02172039 14.0381073,8.08186173 14.59,8.18 C15.3197052,8.31304027 16.0585375,8.38993232 16.8,8.41 L17.14,8.41 L17.14,6.92 L17.63,6.92 L17.63,6.11 L17.14,6.11 L17.14,5 L17.68,5.03 Z" id="Shape" fill="#BF5700" fill-rule="nonzero"></path>
                        <path d="M8.74,3.92 L8.64,3.92 C8.33,3.92 8.01,4.02 7.64,4.05 L7.64,4.59 L8.64,4.45 L8.64,4.45 L8.64,3.91 L8.74,3.92 Z" id="Path" fill="#BF5700" fill-rule="nonzero"></path>
                        <path d="M9.14,3.86 L9.14,4.4 C9.6520754,4.3153773 10.171296,4.28187919 10.69,4.3 L10.69,3.77 C10.1649692,3.74675858 9.63893552,3.77691338 9.12,3.86 L9.14,3.86 Z" id="Path" fill="#BF5700" fill-rule="nonzero"></path>
                        <path d="M8.74,6.37 L8.64,6.37 L7.64,6.51 L7.64,7.05 C8.02,7.05 8.41,6.96 8.78,6.9 L8.78,6.9 L8.78,6.36 L8.74,6.37 Z" id="Path" fill="#BF5700" fill-rule="nonzero"></path>
                        <path d="M9.14,6.31 L9.14,6.85 C9.62237416,6.77026989 10.1112597,6.73678458 10.6,6.75 L10.6,6.21 C10.1047024,6.20044479 9.60951029,6.23390372 9.12,6.31 L9.14,6.31 Z" id="Path" fill="#BF5700" fill-rule="nonzero"></path>
                        <path d="M8.66,5.16 L8.66,5.7 L8.72,5.7 C9.35291191,5.58076305 9.99598385,5.52382439 10.64,5.53 L10.64,5 C9.96920781,4.98610615 9.29882376,5.0430888 8.64,5.17 L8.66,5.16 Z" id="Path" fill="#BF5700" fill-rule="nonzero"></path>
                        <polygon id="Path" fill="#BF5700" fill-rule="nonzero" points="8.26 5.21 7.64 5.29 7.64 5.83 8.28 5.75 8.28 5.21"></polygon>
                        <path d="M13.94,3.83 C13.5030831,3.76622693 13.0609008,3.74612773 12.62,3.77 L12.62,4.3 C13.0545813,4.28043328 13.4900326,4.30388065 13.92,4.37 L13.92,3.83 L13.94,3.83 Z" id="Path" fill="#BF5700" fill-rule="nonzero"></path>
                        <path d="M15.64,4.06 C15.32,4.06 15,3.98 14.64,3.93 L14.3,3.93 L14.3,4.47 L14.57,4.47 L15.57,4.61 L15.57,4.07 L15.64,4.06 Z" id="Path" fill="#BF5700" fill-rule="nonzero"></path>
                        <path d="M13.83,5 C13.440543,4.97089584 13.049457,4.97089584 12.66,5 L12.66,5.53 C13.0443484,5.51655788 13.4291372,5.53663382 13.81,5.59 L13.81,5 L13.83,5 Z" id="Path" fill="#BF5700" fill-rule="nonzero"></path>
                        <polygon id="Path" fill="#BF5700" fill-rule="nonzero" points="15.69 5.29 14.69 5.16 14.24 5.09 14.24 5.63 14.62 5.69 15.72 5.83 15.72 5.29"></polygon>
                        <polygon id="Path" fill="#BF5700" fill-rule="nonzero" points="14.63 6.92 15.75 7.06 15.75 6.52 14.75 6.38 14.75 6.38 14.75 6.93"></polygon>
                        <path d="M14.23,6.32 C13.7279022,6.23576326 13.2189947,6.19893443 12.71,6.21 L12.71,6.75 C13.2124367,6.73569725 13.7150249,6.77255372 14.21,6.86 L14.21,6.32 L14.23,6.32 Z" id="Path" fill="#BF5700" fill-rule="nonzero"></path>
                        <path d="M11,15 L11.69,13.26 L12.39,15 L14.26,15.12 L12.82,16.32 L13.28,18.14 L11.69,17.14 L10.11,18.14 L10.57,16.32 L9.13,15.12 L11,15 Z M6.76,14.38 L6.76,14.38 L9.76,16.58 L8.6,20.16 L8.6,20.16 L8.6,20.16 L11.6,17.95 L14.65,20.16 L14.65,20.16 L13.49,16.59 L16.49,14.39 L16.49,14.39 C16.49,14.39 16.49,14.39 16.49,14.39 C16.49,14.39 16.49,14.39 16.49,14.39 L12.85,14.39 L11.69,10.83 L11.69,10.83 C11.69,10.83 11.69,10.83 11.69,10.83 L11.69,10.83 L10.53,14.39 L6.74,14.39 C6.74,14.39 6.74,14.39 6.74,14.39 C6.74,14.39 6.74,14.39 6.74,14.39 L6.76,14.38 Z" id="Shape" fill="#BF5700" fill-rule="nonzero"></path>
                        <path d="M19.17,18.83 C18.9050158,19.128578 18.556742,19.341025 18.17,19.44 C18.2273528,19.038817 18.4012062,18.6632937 18.67,18.36 C18.9363277,18.0651004 19.2844638,17.8562188 19.67,17.76 C19.6212339,18.1607264 19.4461032,18.5355059 19.17,18.83 L19.17,18.83 Z M17.71,16.48 C17.6604303,16.0788243 17.7299848,15.6719304 17.91,15.31 C18.178768,15.6121799 18.3496144,15.9887392 18.4,16.39 C18.4495697,16.7911757 18.3800152,17.1980696 18.2,17.56 C17.931232,17.2578201 17.7603856,16.8812608 17.71,16.48 L17.71,16.48 Z M18.52,13.42 C18.4429089,13.0225747 18.4882396,12.6111111 18.65,12.24 C19.2271414,12.8300628 19.3963617,13.7076474 19.08,14.47 C18.799775,14.1984356 18.605114,13.8508266 18.52,13.47 L18.52,13.42 Z M20.45,14.31 C20.4798908,14.7151137 20.3857139,15.1197253 20.18,15.47 C19.9807964,15.8210859 19.6765248,16.1008759 19.31,16.27 C19.278268,15.8679199 19.3726444,15.4659465 19.58,15.12 C19.7841074,14.7703776 20.0867078,14.4886462 20.45,14.31 L20.45,14.31 Z M17.45,21.92 C17.1235127,22.1566805 16.7331051,22.2891402 16.33,22.3 C16.6216493,21.5194179 17.366714,21.0014585 18.2,21 C18.0738966,21.3994617 17.8255501,21.7492455 17.49,22 L17.45,21.92 Z M16.45,19.31 C16.4874969,18.9085688 16.6403038,18.5265515 16.89,18.21 C17.3040108,18.9278727 17.2324219,19.8267104 16.71,20.47 C16.5077649,20.1186229 16.4170918,19.7140816 16.45,19.31 L16.45,19.31 Z M15.45,22.04 C15.3323099,22.4306025 15.1028803,22.7782231 14.79,23.04 C14.5298087,22.2509386 14.7845611,21.3831883 15.43,20.86 C15.5507418,21.2474785 15.5507418,21.6625215 15.43,22.05 L15.45,22.04 Z M16.06,23.81 C15.6943192,24.4028342 15.0465396,24.7627117 14.35,24.76 L14.35,24.76 C14.2302034,24.7698797 14.1097966,24.7698797 13.99,24.76 C14.4230955,24.054476 15.2460935,23.6886991 16.06,23.84 L16.06,23.81 Z M12.6,24 C12.7927248,23.6436255 13.0891384,23.3541862 13.45,23.17 C13.5424083,23.9940156 13.1167726,24.7895962 12.38,25.17 C12.332868,24.7667099 12.4096016,24.3586263 12.6,24 Z M8.08,24.63 C7.7114419,24.4657335 7.40119006,24.1938274 7.19,23.85 C8.00390654,23.6986991 8.82690451,24.064476 9.26,24.77 C8.86143725,24.8396582 8.45119822,24.7909857 8.08,24.63 Z M7.8,22 C7.67925818,21.6125215 7.67925818,21.1974785 7.8,20.81 C8.45691175,21.3297542 8.72032805,22.2038174 8.46,23 C8.14297622,22.7419468 7.91263719,22.3929483 7.8,22 L7.8,22 Z M9.8,23.09 C10.5367726,23.4704038 10.9624083,24.2659844 10.87,25.09 C10.5113873,24.9015372 10.2184628,24.6086127 10.03,24.25 C9.83815633,23.8953577 9.75798414,23.491011 9.8,23.09 Z M5.8,21.88 C5.4644499,21.6292455 5.21610339,21.2794617 5.09,20.88 C5.4931051,20.8908598 5.88351266,21.0233195 6.21,21.26 C6.53727453,21.4975973 6.78482824,21.8288311 6.92,22.21 C6.5168949,22.1991402 6.12648734,22.0666805 5.8,21.83 L5.8,21.88 Z M6.31,18.17 C6.55969619,18.4865515 6.71250311,18.8685688 6.75,19.27 C6.78290815,19.6740816 6.69223509,20.0786229 6.49,20.43 C6.23222277,20.1181826 6.07838024,19.7335762 6.05,19.33 C6.01709185,18.9259184 6.10776491,18.5213771 6.31,18.17 L6.31,18.17 Z M4.12,18.79 C3.84578573,18.4930609 3.66797478,18.1200065 3.61,17.72 C3.99553618,17.8162188 4.34367228,18.0251004 4.61,18.32 C4.88627294,18.6183416 5.06126203,18.9963181 5.11,19.4 C4.72325801,19.301025 4.37498417,19.088578 4.11,18.79 L4.12,18.79 Z M4,16.27 C3.63347518,16.1008759 3.32920358,15.8210859 3.13,15.47 C2.92428608,15.1197253 2.83010925,14.7151137 2.86,14.31 C3.2232922,14.4886462 3.52589258,14.7703776 3.73,15.12 C3.93373438,15.467405 4.02784001,15.8682253 4,16.27 Z M4.1,13.27 C4.18882626,12.8906035 4.3829341,12.5439823 4.66,12.27 C4.81761075,12.6422051 4.86280286,13.0524104 4.79,13.45 C4.70488604,13.8308266 4.51022502,14.1784356 4.23,14.45 C4.07238925,14.0777949 4.02719714,13.6675896 4.1,13.27 Z M4.91,16.37 C4.96038562,15.9687392 5.13123199,15.5921799 5.4,15.29 C5.77919116,16.0275845 5.66382447,16.9226709 5.11,17.54 C4.92009737,17.1813659 4.85000934,16.7713509 4.91,16.37 L4.91,16.37 Z M19.19,16.88 C19.8126239,16.6950811 20.3416826,16.2804135 20.67,15.72 C20.9896774,15.1594476 21.0894787,14.5000463 20.95,13.87 L20.89,13.59 L20.61,13.67 C20.2983643,13.7616562 20.0066637,13.9108984 19.75,14.11 C19.8099247,13.7995318 19.8099247,13.4804682 19.75,13.17 C19.6311176,12.5320678 19.2734999,11.9634557 18.75,11.58 L18.52,11.41 L18.37,11.66 C18.0150087,12.2105449 17.8827305,12.8755107 18,13.52 C18.1285346,14.1513819 18.484376,14.7136114 19,15.1 C18.900797,15.3150796 18.8366527,15.544649 18.81,15.78 C18.6543034,15.3495201 18.3847275,14.9693489 18.03,14.68 L17.81,14.5 L17.64,14.73 C17.268881,15.2595928 17.1084415,15.9084814 17.19,16.55 C17.2730034,17.1927409 17.5985524,17.7794446 18.1,18.19 L18.1,18.19 C17.9543359,18.3897539 17.8365849,18.6084342 17.75,18.84 C17.6899852,18.3890128 17.5065753,17.9633636 17.22,17.61 L17,17.39 L16.79,17.59 C15.8019208,18.4958996 15.6839405,20.0121645 16.52,21.06 L16.52,21.06 C16.334478,21.2204139 16.1758072,21.4094684 16.05,21.62 C16.0809673,21.1636835 15.9876585,20.7075067 15.78,20.3 L15.65,20.05 L15.41,20.19 C14.2431845,20.8664883 13.8049437,22.3345948 14.41,23.54 L14.41,23.54 C14.1957933,23.6649979 14.0004961,23.8198888 13.83,24 C13.9499456,23.5613857 13.9499456,23.0986143 13.83,22.66 L13.76,22.38 L13.49,22.47 C12.8743501,22.6768876 12.3598625,23.1092001 12.05,23.68 C11.7605086,24.2331775 11.6789064,24.8718033 11.82,25.48 L11.56,25.65 L11.31,25.48 C11.6058538,24.1995905 10.8841603,22.903135 9.64,22.48 L9.37,22.39 L9.3,22.67 C9.18005442,23.1086143 9.18005442,23.5713857 9.3,24.01 C9.1295039,23.8298888 8.93420668,23.6749979 8.72,23.55 L8.72,23.55 C9.32505627,22.3445948 8.88681551,20.8764883 7.72,20.2 L7.48,20.06 L7.35,20.31 C7.14234155,20.7175067 7.04903266,21.1736835 7.08,21.63 C6.95115801,21.4216452 6.79285189,21.2330251 6.61,21.07 L6.61,21.07 C7.44605948,20.0221645 7.32807922,18.5058996 6.34,17.6 L6.12,17.4 L5.95,17.63 C5.6634247,17.9833636 5.48001485,18.4090128 5.42,18.86 C5.3334151,18.6284342 5.21566415,18.4097539 5.07,18.21 L5.07,18.21 C6.10906258,17.3558538 6.30601458,15.8415118 5.52,14.75 L5.36,14.52 L5.14,14.7 C4.78527252,14.9893489 4.51569657,15.3695201 4.36,15.8 C4.3287613,15.5655669 4.26480534,15.3366719 4.17,15.12 C4.68989986,14.7375806 5.04688271,14.1735477 5.17,13.54 C5.35263899,12.9210106 5.29182413,12.2556245 5,11.68 L4.85,11.43 L4.61,11.6 C4.09154831,11.9837677 3.73495561,12.5471842 3.61,13.18 C3.54346774,13.5100134 3.54346774,13.8499866 3.61,14.18 C3.35333633,13.9808984 3.06163572,13.8316562 2.75,13.74 L2.47,13.66 L2.41,13.94 C2.11693214,15.2440984 2.8805701,16.553192 4.16,16.94 L4.41,17.01 C4.43149824,17.2160653 4.48199711,17.4180608 4.56,17.61 C4.21353164,17.3819435 3.81387161,17.247575 3.4,17.22 L3.11,17.22 L3.11,17.51 C3.13365148,18.7997436 4.11674004,19.8686915 5.4,20 L5.65,20 C5.71765726,20.1934812 5.80830633,20.3781367 5.92,20.55 C5.63469109,20.4460705 5.33364242,20.3919494 5.03,20.39 L4.71,20.39 L4.42,20.39 L4.48,20.67 C4.67574823,21.9125721 5.74213713,22.8308514 7,22.84 L7.32,22.84 L7.57,22.84 C7.67642595,23.0180715 7.80402111,23.1826022 7.95,23.33 C7.54046232,23.266179 7.12151678,23.3039528 6.73,23.44 L6.46,23.53 L6.57,23.8 C6.82816286,24.3952009 7.29874836,24.8729164 7.89,25.14 C8.20520291,25.2796649 8.5452846,25.3544828 8.89,25.36 C9.17663704,25.3597273 9.4609841,25.3089511 9.73,25.21 L9.93,25.15 C10.26,25.43 10.64,25.71 11.15,26.07 L10.37,26.58 L10.87,26.89 L11.63,26.39 L12.4,26.89 L12.9,26.58 L12.12,26 C12.64,25.64 13.02,25.36 13.35,25.08 L13.55,25.14 C13.8187925,25.2397733 14.103288,25.2905761 14.39,25.29 L14.39,25.29 C14.7345894,25.2834113 15.0744618,25.2086394 15.39,25.07 C15.9803311,24.8049538 16.4483861,24.3261801 16.7,23.73 L16.82,23.46 L16.55,23.37 C16.158397,23.2343538 15.7395508,23.1965889 15.33,23.26 C15.4759789,23.1126022 15.603574,22.9480715 15.71,22.77 L15.96,22.77 L16.28,22.77 L16.28,22.77 C16.8164845,22.7714467 17.3390891,22.5995834 17.77,22.28 C18.2913717,21.898955 18.6487548,21.3342896 18.77,20.7 L18.83,20.42 L18.54,20.42 L18.22,20.42 C17.9163576,20.4219494 17.6153089,20.4760705 17.33,20.58 C17.4416937,20.4081367 17.5323427,20.2234812 17.6,20.03 L17.85,20.03 C18.4961481,19.9805793 19.0981424,19.6831655 19.53,19.2 C19.9628426,18.7207866 20.1985908,18.0956968 20.19,17.45 L20.19,17.16 L19.9,17.16 C19.4861284,17.187575 19.0864684,17.3219435 18.74,17.55 C18.8180029,17.3580608 18.8685018,17.1560653 18.89,16.95 L19.13,16.88 L19.19,16.88 Z" id="Shape" fill="#BF5700" fill-rule="nonzero"></path>
                        <path d="M19.24,22.55 C18.6826034,23.3697827 18.0389254,24.1274454 17.32,24.81 C15.6444102,26.3160297 13.7321332,27.5356975 11.66,28.42 C9.58786681,27.5356975 7.67558985,26.3160297 6,24.81 C5.28107459,24.1274454 4.63739656,23.3697827 4.08,22.55 C1.44,18.69 1.08,14.22 1.08,10.74 L1.08,10.74 L11.64,10.15 L22.21,10.74 C22.21,14.22 21.86,18.69 19.21,22.55 L19.24,22.55 Z M1.66,1.76 C3.66,1.54 8.04,1.1 11.66,1.1 C15.28,1.1 19.66,1.54 21.66,1.76 L22.21,9.5 L1.11,9.5 L1.66,1.76 L1.66,1.76 Z M23.3,0.87 L22.83,0.81 C19.1266104,0.346179353 15.4015515,0.0758121806 11.67,0 L11.67,0 C7.93879725,0.0691749206 4.21373972,0.332866269 0.51,0.79 L0.04,0.85 L0.04,9.5 L0.04,9.5 L0.04,10.7 C0.04,14.34 0.4,19.04 3.21,23.16 C3.7943,24.0221216 4.4643835,24.8228713 5.21,25.55 L5.21,25.55 C7.15998889,27.3041533 9.32782953,28.7997953 11.66,30 L11.66,30 C13.9837759,28.797069 16.1417663,27.2979043 18.08,25.54 L18.08,25.54 C18.825216,24.8125003 19.4952642,24.0117928 20.08,23.15 C22.94,19 23.3,14.34 23.3,10.7 L23.3,10.53 L23.3,10.53 L23.3,0.87 Z" id="Shape" fill="#BF5700" fill-rule="nonzero"></path>
                        <polygon id="Path" fill="#BF5700" fill-rule="nonzero" points="29.62 1.81 29.62 7.9 30.96 7.9 32.55 3.53 37.71 3.46 37.71 24.33 33.58 24.78 33.75 25.99 39.54 25.88 45.12 25.99 45.29 24.78 41.33 24.33 41.33 3.46 46.49 3.53 48.08 7.9 49.42 7.9 49.42 1.81 39.5 1.91"></polygon>
                        <polygon id="Path" fill="#BF5700" fill-rule="nonzero" points="67.5 24.26 58.03 24.37 58.03 14.03 62.86 14.17 64.23 17.79 65.44 17.79 65.09 13.14 65.44 8.83 64.23 8.83 62.86 12.45 58.03 12.59 58.03 3.43 67.16 3.53 69.09 8.01 70.26 8.01 69.92 1.81 56.24 1.91 51.49 1.81 51.32 3.01 54.42 3.46 54.42 24.33 51.32 24.78 51.49 25.99 56.24 25.88 69.92 25.99 71.12 19.61 69.81 19.61"></polygon>
                        <path d="M107.5,1.5 L105.43,2.08 L96.89,24.4 L95.23,24.63 L93.58,24.37 L85.93,13.1 L93,3.39 L95.69,3.01 L95.52,1.81 L91.52,1.91 L87.52,1.81 L87.35,3.01 L90.35,3.46 L84.89,11.46 L80.02,3.39 L82.95,2.94 L82.78,1.73 L77.88,1.87 L72.96,1.73 L72.71,3 L75.39,3.38 L82.52,14.16 L75.08,24.39 L72.4,24.77 L72.57,26.01 L76.43,25.9 L80.43,26.01 L80.6,24.77 L77.77,24.35 L83.65,15.76 L89,24.3 L86.08,24.75 L86.25,25.99 L91.17,25.88 L95.17,25.97 L98,25.88 L102.13,25.99 L102.3,24.78 L99.3,24.33 L101.54,17.89 L110.04,17.89 L112.39,24.33 L109.46,24.78 L109.7,26 L114.25,25.89 L119,26 L119.17,24.79 L116.48,24.41 L107.5,1.5 Z M102.16,16.27 L105.73,6 L109.49,16.32 L102.16,16.27 Z" id="Shape" fill="#BF5700" fill-rule="nonzero"></path>
                        <path d="M130.85,12.45 L126.85,10.73 C124.95,9.9 123.61,8.73 123.61,6.84 C123.61,4.53 125.23,3.05 127.95,3.05 C129.489423,2.96947556 130.982401,3.59093682 132.01,4.74 L133.01,7.87 L134.73,7.87 L134.73,3.22 C132.882679,1.92731041 130.684673,1.22953081 128.43,1.22 C123.64,2.22 120.2,4.42 120.2,8.22 C120.2,11.28 122.2,12.87 124.71,13.94 L128.88,15.76 C130.95,16.66 132.46,18 132.46,20.34 C132.46,22.86 130.74,24.72 127.78,24.72 C125.945095,24.6956882 124.207119,23.8921468 123,22.51 L121.8,19.58 L119.38,19.58 L120.14,24.23 C122.157124,25.8435451 124.689032,26.674494 127.27,26.57 C133.75,25.23 135.95,22.09 135.95,18.86 C136,15.34 133.57,13.62 130.85,12.45 Z" id="Path" fill="#BF5700" fill-rule="nonzero"></path>
                        <polygon id="Path" fill="#BF5700" fill-rule="nonzero" points="29.64 1.81 29.64 7.91 30.98 7.91 32.57 3.53 37.73 3.46 37.73 24.34 33.6 24.78 33.77 25.99 39.56 25.89 45.14 25.99 45.31 24.78 41.35 24.34 41.35 3.46 46.52 3.53 48.1 7.91 49.44 7.91 49.44 1.81 39.53 1.91"></polygon>
                        <polygon id="Path" fill="#BF5700" fill-rule="nonzero" points="67.53 24.27 58.06 24.37 58.06 14.04 62.88 14.18 64.26 17.79 65.46 17.79 65.12 13.14 65.46 8.84 64.26 8.84 62.88 12.45 58.06 12.59 58.06 3.43 67.18 3.53 69.11 8.01 70.28 8.01 69.94 1.81 56.27 1.91 51.51 1.81 51.34 3.02 54.44 3.46 54.44 24.34 51.34 24.78 51.51 25.99 56.27 25.89 69.94 25.99 71.14 19.62 69.83 19.62"></polygon>
                        <path d="M107.52,1.5 L105.45,2.09 L96.91,24.41 L95.25,24.63 L93.6,24.37 L86,13.11 L93,3.4 L95.7,3 L95.53,1.79 L91.53,1.89 L87.53,1.79 L87.3,3 L90.3,3.44 L84.83,11.44 L80,3.43 L82.93,2.98 L82.76,1.78 L77.87,1.91 L72.94,1.78 L72.77,2.98 L75.46,3.36 L82.59,14.14 L75.15,24.37 L72.46,24.75 L72.63,25.99 L76.49,25.89 L80.49,25.99 L80.66,24.75 L77.84,24.34 L83.71,15.75 L89.07,24.3 L86.14,24.75 L86.3,26 L91.23,25.9 L95.23,25.98 L98.06,25.9 L102.19,26 L102.37,24.79 L99.37,24.35 L101.61,17.91 L110.12,17.91 L112.46,24.35 L109.53,24.79 L109.7,26 L114.25,25.9 L119,26 L119.17,24.79 L116.49,24.42 L107.52,1.5 Z M102.18,16.28 L105.75,6 L109.52,16.33 L102.18,16.28 Z" id="Shape" fill="#BF5700" fill-rule="nonzero"></path>
                        <path d="M130.87,12.45 L126.87,10.73 C124.98,9.91 123.63,8.73 123.63,6.84 C123.63,4.53 125.25,3.05 127.97,3.05 C129.511848,2.97222898 131.006736,3.59295673 132.04,4.74 L133.04,7.87 L134.77,7.87 L134.77,3.22 C132.918739,1.92767804 130.717689,1.23003932 128.46,1.22 C123.68,2.22 120.23,4.42 120.23,8.22 C120.23,11.29 122.23,12.87 124.74,13.94 L128.91,15.77 C130.98,16.66 132.49,18.01 132.49,20.35 C132.49,22.86 130.77,24.72 127.81,24.72 C125.964024,24.7067739 124.21248,23.9020105 123,22.51 L121.8,19.58 L119.39,19.58 L120.14,24.23 C122.15703,25.8447213 124.688152,26.6789621 127.27,26.58 C133.75,25.23 135.95,22.1 135.95,18.86 C136,15.35 133.59,13.62 130.87,12.45 Z" id="Path" fill="#BF5700" fill-rule="nonzero"></path>
                    </g>
                </g>
                <polygon id="Path" fill="#FFFFFF" fill-rule="nonzero" points="164.65 1.86 168.48 1.96 171.68 1.86 171.85 3.06 168.92 3.51 168.92 24.38 171.68 24.83 171.51 26 167.37 25.89 162.37 26 162.2 24.79 165.3 24.34 165.3 8.64 165.74 4.64 157 26 154.87 26 148 8.61 146.73 4.61 146.73 24.38 149.73 24.83 149.46 26 145.78 25.89 141.89 26 141.71 24.79 144.47 24.34 144.47 3.58 141.54 3.06 141.71 1.86 145.26 1.96 149.05 1.86 156.28 20.08 156.56 22.01"></polygon>
                <path d="M181.5,11.67 C180.919936,11.2546953 180.210856,11.0596985 179.5,11.12 C177.16,11.12 175.37,13.74 175.37,17.49 C175.37,21.24 177.37,23.94 180.74,23.94 C182.146686,23.8296602 183.494302,23.3273352 184.63,22.49 L185.18,23.8 C183.468781,25.0030337 181.574348,25.9215467 179.57,26.52 C175.16,26.52 171.89,23.63 171.89,18.32 C171.89,13.01 175.89,10.32 180.08,9.32 C181.803347,9.36825283 183.468153,9.95583141 184.84,11 L184.84,14.44 L182.29,14.44 L181.5,11.67 Z" id="Path" fill="#FFFFFF" fill-rule="nonzero"></path>
                <path d="M208.33,19 L207.43,24 C204.770959,25.2599668 201.956349,26.16118 199.06,26.68 C192.66,26.68 186.66,22.34 186.66,14.32 C186.66,6.3 192,2.37 199.66,1.32 C202.613926,1.38133284 205.483956,2.31365768 207.91,4 L207.91,8.65 L206,8.65 L204.9,5.45 C203.393849,3.91901091 201.327445,3.07005122 199.18,3.1 C194.08,3.1 190.6,6.72 190.6,13.47 C190.6,19.05 194.01,24.77 200.04,24.77 C201.726922,24.6917423 203.328687,24.0062862 204.55,22.84 L206.43,19 L208.33,19 Z" id="Path" fill="#FFFFFF" fill-rule="nonzero"></path>
                <path d="M225.86,17.56 C225.86,22.7 222.73,25.66 217.39,26.56 C212.81,26.56 209.71,23.01 209.71,18.33 C209.71,13.16 212.84,10.23 218.18,9.33 C222.76,9.3 225.86,12.88 225.86,17.56 Z M218.25,24.83 C221,24.83 222.42,22.01 222.42,18.29 C222.42,13.91 220.31,10.99 217.32,10.99 C214.53,10.99 213.15,13.81 213.15,17.56 C213.15,21.49 215.18,24.83 218.25,24.83 Z" id="Shape" fill="#FFFFFF" fill-rule="nonzero"></path>
                <path d="M250.31,25.93 L247,26 L246.83,24.79 L248.55,24.45 L248.55,14.64 C248.55,12.85 247.79,12.05 246.55,12.05 C245.257584,12.2265361 244.041084,12.7637369 243.04,13.6 L242.04,14.33 L242.04,24.49 L243.59,24.83 L243.43,26 L240.5,25.89 L237.4,26 L237.23,24.79 L238.78,24.45 L238.78,14.64 C238.78,12.85 238.02,12.05 236.78,12.05 C235.483922,12.2241952 234.263584,12.7615602 233.26,13.6 L232.26,14.33 L232.26,24.49 L233.98,24.83 L233.78,26 L230.68,25.89 L226.68,26 L226.51,24.79 L228.92,24.45 L228.92,11.92 L226.51,12.12 L226.34,10.92 L230.47,9.85 L231.95,9.75 L232.12,12.6 L236.88,9.3 C240.22,9.3 241.46,10.3 241.88,12.67 L246.73,9.3 C251.14,9.3 251.86,10.95 251.86,15.3 L251.86,24.47 L254.45,24.81 L254.27,26 L250.31,25.93 Z" id="Path" fill="#FFFFFF" fill-rule="nonzero"></path>
                <path d="M262,26.52 C259.892148,26.6333803 257.799632,26.1032763 256,25 L256,3.72 L253.59,3.79 L253.42,2.62 L257.55,1.55 L259.27,1.41 L259.27,12.57 L263.61,9.3 C267.4,9.3 270.61,12.3 270.61,17.15 C270.64,23.11 267.12,25.76 262,26.52 Z M263.62,12.05 C262.392147,12.1453227 261.229419,12.6406236 260.31,13.46 L259.31,14.29 L259.31,23.42 C260.194437,24.3502803 261.437501,24.8533385 262.72,24.8 C265.48,24.8 267.23,22.28 267.23,18.22 C267.19,14.4 265.68,12.05 263.61,12.05 L263.62,12.05 Z" id="Shape" fill="#FFFFFF" fill-rule="nonzero"></path>
                <path d="M280.76,11.74 C279.968269,11.2713411 279.069752,11.0131465 278.15,10.99 C276.8,10.99 275.53,11.71 275.53,12.99 C275.53,14.09 276.39,14.78 277.94,15.57 L280.59,16.91 C282.9,18.08 283.83,19.39 283.83,21.36 C283.83,24.46 281.31,25.63 277.35,26.49 C275.513897,26.410624 273.722256,25.9001945 272.12,25 L271.46,21.11 L273.67,21.11 L274.84,23.97 C275.676608,24.5242914 276.656454,24.82311 277.66,24.83 C278.386616,24.9002415 279.107986,24.6519399 279.637429,24.1493525 C280.166872,23.6467652 280.452356,22.9392854 280.42,22.21 C280.42,20.87 279.7,20.28 277.9,19.35 L275.18,17.94 C273.531808,17.2680117 272.410366,15.7158423 272.29,13.94 C272.29,11.53 274.53,10.19 278.52,9.33 C280.253902,9.3771473 281.938968,9.91456537 283.38,10.88 L283.38,14.32 L281.56,14.32 L280.76,11.74 Z" id="Path" fill="#FFFFFF" fill-rule="nonzero"></path>
                <polygon id="Path" fill="#FFFFFF" fill-rule="nonzero" points="164.65 1.86 168.48 1.96 171.68 1.86 171.85 3.06 168.92 3.51 168.92 24.38 171.68 24.83 171.51 26 167.37 25.89 162.37 26 162.2 24.79 165.3 24.34 165.3 8.64 165.74 4.64 157 26 154.87 26 148 8.61 146.73 4.61 146.73 24.38 149.73 24.83 149.46 26 145.78 25.89 141.89 26 141.71 24.79 144.47 24.34 144.47 3.58 141.54 3.06 141.71 1.86 145.26 1.96 149.05 1.86 156.28 20.08 156.56 22.01"></polygon>
                <path d="M181.5,11.67 C180.919936,11.2546953 180.210856,11.0596985 179.5,11.12 C177.16,11.12 175.37,13.74 175.37,17.49 C175.37,21.24 177.37,23.94 180.74,23.94 C182.146686,23.8296602 183.494302,23.3273352 184.63,22.49 L185.18,23.8 C183.468781,25.0030337 181.574348,25.9215467 179.57,26.52 C175.16,26.52 171.89,23.63 171.89,18.32 C171.89,13.01 175.89,10.32 180.08,9.32 C181.803347,9.36825283 183.468153,9.95583141 184.84,11 L184.84,14.44 L182.29,14.44 L181.5,11.67 Z" id="Path" fill="#FFFFFF" fill-rule="nonzero"></path>
                <path d="M208.33,19 L207.43,24 C204.770959,25.2599668 201.956349,26.16118 199.06,26.68 C192.66,26.68 186.66,22.34 186.66,14.32 C186.66,6.3 192,2.37 199.66,1.32 C202.613926,1.38133284 205.483956,2.31365768 207.91,4 L207.91,8.65 L206,8.65 L204.9,5.45 C203.393849,3.91901091 201.327445,3.07005122 199.18,3.1 C194.08,3.1 190.6,6.72 190.6,13.47 C190.6,19.05 194.01,24.77 200.04,24.77 C201.726922,24.6917423 203.328687,24.0062862 204.55,22.84 L206.43,19 L208.33,19 Z" id="Path" fill="#FFFFFF" fill-rule="nonzero"></path>
                <path d="M225.86,17.56 C225.86,22.7 222.73,25.66 217.39,26.56 C212.81,26.56 209.71,23.01 209.71,18.33 C209.71,13.16 212.84,10.23 218.18,9.33 C222.76,9.3 225.86,12.88 225.86,17.56 Z M218.25,24.83 C221,24.83 222.42,22.01 222.42,18.29 C222.42,13.91 220.31,10.99 217.32,10.99 C214.53,10.99 213.15,13.81 213.15,17.56 C213.15,21.49 215.18,24.83 218.25,24.83 Z" id="Shape" fill="#FFFFFF" fill-rule="nonzero"></path>
                <path d="M250.31,25.93 L247,26 L246.83,24.79 L248.55,24.45 L248.55,14.64 C248.55,12.85 247.79,12.05 246.55,12.05 C245.257584,12.2265361 244.041084,12.7637369 243.04,13.6 L242.04,14.33 L242.04,24.49 L243.59,24.83 L243.43,26 L240.5,25.89 L237.4,26 L237.23,24.79 L238.78,24.45 L238.78,14.64 C238.78,12.85 238.02,12.05 236.78,12.05 C235.483922,12.2241952 234.263584,12.7615602 233.26,13.6 L232.26,14.33 L232.26,24.49 L233.98,24.83 L233.78,26 L230.68,25.89 L226.68,26 L226.51,24.79 L228.92,24.45 L228.92,11.92 L226.51,12.12 L226.34,10.92 L230.47,9.85 L231.95,9.75 L232.12,12.6 L236.88,9.3 C240.22,9.3 241.46,10.3 241.88,12.67 L246.73,9.3 C251.14,9.3 251.86,10.95 251.86,15.3 L251.86,24.47 L254.45,24.81 L254.27,26 L250.31,25.93 Z" id="Path" fill="#FFFFFF" fill-rule="nonzero"></path>
                <path d="M262,26.52 C259.892148,26.6333803 257.799632,26.1032763 256,25 L256,3.72 L253.59,3.79 L253.42,2.62 L257.55,1.55 L259.27,1.41 L259.27,12.57 L263.61,9.3 C267.4,9.3 270.61,12.3 270.61,17.15 C270.64,23.11 267.12,25.76 262,26.52 Z M263.62,12.05 C262.392147,12.1453227 261.229419,12.6406236 260.31,13.46 L259.31,14.29 L259.31,23.42 C260.194437,24.3502803 261.437501,24.8533385 262.72,24.8 C265.48,24.8 267.23,22.28 267.23,18.22 C267.19,14.4 265.68,12.05 263.61,12.05 L263.62,12.05 Z" id="Shape" fill="#FFFFFF" fill-rule="nonzero"></path>
                <path d="M280.76,11.74 C279.968269,11.2713411 279.069752,11.0131465 278.15,10.99 C276.8,10.99 275.53,11.71 275.53,12.99 C275.53,14.09 276.39,14.78 277.94,15.57 L280.59,16.91 C282.9,18.08 283.83,19.39 283.83,21.36 C283.83,24.46 281.31,25.63 277.35,26.49 C275.513897,26.410624 273.722256,25.9001945 272.12,25 L271.46,21.11 L273.67,21.11 L274.84,23.97 C275.676608,24.5242914 276.656454,24.82311 277.66,24.83 C278.386616,24.9002415 279.107986,24.6519399 279.637429,24.1493525 C280.166872,23.6467652 280.452356,22.9392854 280.42,22.21 C280.42,20.87 279.7,20.28 277.9,19.35 L275.18,17.94 C273.531808,17.2680117 272.410366,15.7158423 272.29,13.94 C272.29,11.53 274.53,10.19 278.52,9.33 C280.253902,9.3771473 281.938968,9.91456537 283.38,10.88 L283.38,14.32 L281.56,14.32 L280.76,11.74 Z" id="Path" fill="#FFFFFF" fill-rule="nonzero"></path>
            </g>
        </g>
    </g>
</svg>