<?xml version="1.0" encoding="UTF-8"?>
<svg width="296px" height="20px" viewBox="0 0 296 20" version="1.1" xmlns="http://www.w3.org/2000/svg" xmlns:xlink="http://www.w3.org/1999/xlink">
    <title>Group 25</title>
    <defs>
        <polygon id="path-1" points="0 0 16.265 0 16.265 19.441 0 19.441"></polygon>
    </defs>
    <g id="Symbols" stroke="none" stroke-width="1" fill="none" fill-rule="evenodd">
        <g id="Atoms/1.Logo/Endeavor" transform="translate(0.000000, -1.000000)">
            <g id="Group-25" transform="translate(-0.000000, 1.000000)">
                <polygon id="Fill-1" fill="#FEFEFE" points="26.883 0.4771 26.883 17.1591 16.202 0.4771 14.473 0.4771 14.473 18.8111 15.693 18.8111 15.693 1.8491 26.578 18.8111 28.129 18.8111 28.129 0.4771"></polygon>
                <path d="M39.357,0.4767 L33.05,0.4767 L33.05,18.8107 L38.569,18.8107 C41.57,18.8107 43.502,18.1497 45.054,16.6497 C46.681,15.0477 47.521,12.8097 47.521,9.9877 C47.521,4.1897 44.316,0.4767 39.357,0.4767 M44.215,15.7857 C42.918,17.1077 41.315,17.6667 38.721,17.6667 L34.297,17.6667 L34.297,1.5707 L38.823,1.5707 C41.112,1.5707 42.841,2.2067 44.087,3.4777 C45.46,4.8507 46.249,7.1897 46.249,9.8597 C46.249,12.3267 45.537,14.4117 44.215,15.7857" id="Fill-2" fill="#FEFEFE"></path>
                <polygon id="Fill-4" fill="#FEFEFE" points="72.3555 0.5527 64.7515 18.8877 65.9725 18.8877 68.0825 13.8527 75.7545 13.8527 76.1185 12.7597 68.5405 12.7597 73.0925 1.7997 80.1875 18.8877 81.3815 18.8877 73.8045 0.5527"></polygon>
                <polygon id="Fill-5" fill="#FEFEFE" points="95.7753 0.5527 88.6543 17.6407 81.5603 0.5527 80.3643 0.5527 87.9423 18.8877 89.3913 18.8877 96.9943 0.5527"></polygon>
                <g id="Group-10" transform="translate(98.013200, 0.018900)" fill="#FEFEFE">
                    <path d="M8.087,0 C3.332,0 -1.42108547e-14,4.018 -1.42108547e-14,9.689 C-1.42108547e-14,15.334 3.382,19.403 8.087,19.403 C12.766,19.403 16.174,15.385 16.174,9.841 C16.174,4.043 12.842,0 8.087,0 M7.985,18.284 C4.069,18.284 1.297,14.724 1.297,9.663 C1.297,4.577 3.967,1.144 7.985,1.144 C12.206,1.144 14.902,4.577 14.902,9.917 C14.902,12.002 13.936,18.284 7.985,18.284" id="Fill-6"></path>
                    <path d="M28.4571,9.7897 C29.6781,9.4337 30.1351,9.2057 30.7961,8.6457 C31.8641,7.7557 32.4241,6.5607 32.4241,5.2127 C32.4241,2.3907 30.1861,0.4577 26.9311,0.4577 L19.4801,0.4577 L19.4801,18.7917 L20.7271,18.7917 L20.7271,9.9937 L27.2611,9.9937 L31.7631,18.7917 L33.0091,18.7917 L28.4571,9.7897 Z M26.3721,8.9267 L20.7271,8.9267 L20.7271,1.5007 L26.9311,1.5007 C29.3461,1.5007 31.1781,3.1017 31.1781,5.1877 C31.1781,7.4507 29.2711,8.9267 26.3721,8.9267 L26.3721,8.9267 Z" id="Fill-8"></path>
                </g>
                <polygon id="Fill-11" fill="#FEFEFE" points="50.9544 0.4771 50.9544 18.8111 61.9654 18.8111 61.9654 17.6671 52.1754 17.6671 52.1754 10.2161 60.2624 10.2161 60.2624 9.0721 52.1754 9.0721 52.1754 1.6211 61.4334 1.6211 61.8124 0.4771"></polygon>
                <polygon id="Fill-12" fill="#FEFEFE" points="0 0.4771 0 18.8111 11.012 18.8111 11.012 17.6671 1.22 17.6671 1.22 10.2161 9.307 10.2161 9.307 9.0721 1.22 9.0721 1.22 1.6211 10.478 1.6211 10.859 0.4771"></polygon>
                <polygon id="Fill-13" fill="#FEFEFE" points="178.371 0.3214 178.371 11.8954 169.564 0.3214 165.75 0.3214 165.75 19.1184 169.832 19.1184 169.832 7.1694 178.935 19.1184 182.452 19.1184 182.452 0.3214"></polygon>
                <polygon id="Fill-14" fill="#FEFEFE" points="206.8326 0.3214 206.8326 19.1184 220.3386 19.1184 220.3386 15.3594 210.9676 15.3594 210.9676 0.3214"></polygon>
                <polygon id="Fill-15" fill="#FEFEFE" points="231.2406 0.3214 226.6756 7.8674 222.1916 0.3214 217.3576 0.3214 224.5816 11.7074 224.5816 19.1184 228.7166 19.1184 228.7166 11.6274 235.9406 0.3214"></polygon>
                <polygon id="Fill-16" fill="#FEFEFE" points="254.761 19.119 258.896 19.119 258.896 0.322 254.761 0.322"></polygon>
                <path d="M289.6949,7.8674 C286.4459,7.0344 285.6399,6.6324 285.6399,5.3964 L285.6399,5.3434 C285.6399,4.4304 286.4729,3.7054 288.0569,3.7054 C289.6419,3.7054 291.2789,4.4034 292.9439,5.5584 L295.0929,2.4434 C293.1859,0.9124 290.8499,0.0534 288.1109,0.0534 C284.2709,0.0534 281.5319,2.3084 281.5319,5.7194 L281.5319,5.7724 C281.5319,9.5054 283.9759,10.5524 287.7619,11.5194 C290.9039,12.3244 291.5479,12.8614 291.5479,13.9094 L291.5479,13.9634 C291.5479,15.0644 290.5279,15.7354 288.8359,15.7354 C286.6879,15.7354 284.9149,14.8494 283.2239,13.4524 L280.7799,16.3794 C283.0359,18.3934 285.9089,19.3874 288.7549,19.3874 C292.8099,19.3874 295.6569,17.2924 295.6569,13.5604 L295.6569,13.5064 C295.6569,10.2304 293.5079,8.8614 289.6949,7.8674" id="Fill-17" fill="#FEFEFE"></path>
                <polygon id="Fill-19" fill="#FEFEFE" points="151.6545 0.1873 143.5985 19.1193 147.8145 19.1193 149.5335 14.9023 153.3065 14.9023 154.9175 11.2513 151.0215 11.2513 153.5065 5.1553 159.2005 19.1193 163.5225 19.1193 155.4665 0.1873"></polygon>
                <polygon id="Fill-20" fill="#FEFEFE" points="192.7359 0.1873 184.6799 19.1193 188.8969 19.1193 190.6159 14.9023 194.3889 14.9023 195.9999 11.2513 192.1039 11.2513 194.5889 5.1553 200.2819 19.1193 204.6049 19.1193 196.5489 0.1873"></polygon>
                <polygon id="Fill-21" fill="#FEFEFE" points="238.6251 0.3214 236.1731 4.1344 242.2221 4.1344 242.2221 19.1184 246.3581 19.1184 246.3581 4.1344 252.0771 4.1344 252.0771 0.3214"></polygon>
                <g id="Group-24" transform="translate(262.632600, 0.000000)">
                    <mask id="mask-2" fill="white">
                        <use xlink:href="#path-1"></use>
                    </mask>
                    <g id="Clip-23"></g>
                    <path d="M9.774,15.628 C6.605,15.628 4.323,12.996 4.323,9.774 L4.323,9.72 L4.323,9.667 C4.323,6.444 6.605,3.812 9.774,3.812 C11.646,3.812 13.118,4.612 14.563,5.919 L16.265,2.06 C14.688,0.809 12.732,-0.001 9.801,-0.001 C4.027,-0.001 0,4.376 0,9.72 C0,15.064 4.027,19.441 9.801,19.441 C12.732,19.441 14.688,18.632 16.265,17.381 L14.563,13.522 C13.118,14.828 11.646,15.628 9.774,15.628" id="Fill-22" fill="#FEFEFE" mask="url(#mask-2)"></path>
                </g>
            </g>
        </g>
    </g>
</svg>