<svg height="30" viewBox="0 0 284 30" width="284" xmlns="http://www.w3.org/2000/svg" xmlns:xlink="http://www.w3.org/1999/xlink"><filter id="a" color-interpolation-filters="auto"><feColorMatrix in="SourceGraphic" type="matrix" values="0 0 0 0 1.000000 0 0 0 0 1.000000 0 0 0 0 1.000000 0 0 0 1.000000 0"/></filter><g fill="none" fill-rule="nonzero"><g fill="#bf5700" filter="url(#a)" opacity=".99"><path d="m11.65 10.04h.03v-.01h-.03z"/><path d="m14.68 7.52c-.5843522-.1079621-1.176047-.17147736-1.77-.19-.2588352-.00188801-.5170812.02494274-.77.08l-.14-3.53v-.59c.3008348-.10974103.6199516-.16066393.94-.15.5533293.01755885 1.1047146.07436825 1.65.17.53.08 1.07.16 1.62.19l.15 4.22c-.5665527-.0358673-1.1307253-.10263328-1.69-.2zm-6 0c-.56271661.09678303-1.13018608.16354414-1.7.2l.15-4.22c.56 0 1.1-.11 1.63-.19.54521965-.09610398 1.09663881-.15291686 1.65-.17.3199863-.00968394.6389192.0412096.94.15v.59l-.13 3.53c-.253008-.05449883-.5111923-.08132317-.77-.08-.59395303.01852264-1.18564782.0820379-1.77.19zm9-2.49v-.81h-.49v-1.37h-.34c-.7006114-.0156157-1.399142-.08246074-2.09-.2-.5817603-.10090415-1.169858-.16105052-1.76-.18-.4433542-.01505642-.8843677.07041133-1.29.25-.4020445-.17977441-.839858-.26528487-1.28-.25-.5867971.01941279-1.17153739.0795575-1.75.18-.6942157.1175648-1.39607258.18440831-2.1.2h-.38v1.37h-.5v.78h.5v1.08h-.49v.81h.49v1.49h.33c.74477442-.02006593 1.48693051-.09695598 2.22-.23.55258742-.088083 1.11056078-.13820037 1.67-.15.3154757-.01221558.6297219.04585165.92.17h.66c.2899816-.12512663.6044515-.1832352.92-.17.5601293.02172039 1.1181073.08186173 1.67.18.7297052.13304027 1.4685375.20993232 2.21.23h.34v-1.49h.49v-.81h-.49v-1.11z"/><path d="m8.74 3.92h-.1c-.31 0-.63.1-1 .13v.54l1-.14v-.54z"/><path d="m9.14 3.86v.54c.5120754-.0846227 1.031296-.11812081 1.55-.1v-.53c-.5250308-.02324142-1.05106448.00691338-1.57.09z"/><path d="m8.74 6.37h-.1l-1 .14v.54c.38 0 .77-.09 1.14-.15v-.54z"/><path d="m9.14 6.31v.54c.48237416-.07973011.9712597-.11321542 1.46-.1v-.54c-.4952976-.00955521-.99048971.02390372-1.48.1z"/><path d="m8.66 5.16v.54h.06c.63291191-.11923695 1.27598385-.17617561 1.92-.17v-.53c-.67079219-.01389385-1.34117624.0430888-2 .17z"/><path d="m8.26 5.21-.62.08v.54l.64-.08v-.54z"/><path d="m13.94 3.83c-.4369169-.06377307-.8790992-.08387227-1.32-.06v.53c.4345813-.01956672.8700326.00388065 1.3.07v-.54z"/><path d="m15.64 4.06c-.32 0-.64-.08-1-.13h-.34v.54h.27l1 .14v-.54z"/><path d="m13.83 5c-.389457-.02910416-.780543-.02910416-1.17 0v.53c.3843484-.01344212.7691372.00663382 1.15.06v-.59z"/><path d="m15.69 5.29-1-.13-.45-.07v.54l.38.06 1.1.14v-.54z"/><path d="m14.63 6.92 1.12.14v-.54l-1-.14v.55z"/><path d="m14.23 6.32c-.5020978-.08423674-1.0110053-.12106557-1.52-.11v.54c.5024367-.01430275 1.0050249.02255372 1.5.11v-.54z"/><path d="m11 15 .69-1.74.7 1.74 1.87.12-1.44 1.2.46 1.82-1.59-1-1.58 1 .46-1.82-1.44-1.2zm-4.24-.62 3 2.2-1.16 3.58 3-2.21 3.05 2.21-1.16-3.57 3-2.2h-3.64l-1.16-3.56-1.16 3.56h-3.79z"/><path d="m19.17 18.83c-.2649842.298578-.613258.511025-1 .61.0573528-.401183.2312062-.7767063.5-1.08.2663277-.2948996.6144638-.5037812 1-.6-.0487661.4007264-.2238968.7755059-.5 1.07zm-1.46-2.35c-.0495697-.4011757.0199848-.8080696.2-1.17.268768.3021799.4396144.6787392.49 1.08.0495697.4011757-.0199848.8080696-.2 1.17-.268768-.3021799-.4396144-.6787392-.49-1.08zm.81-3.06c-.0770911-.3974253-.0317604-.8088889.13-1.18.5771414.5900628.7463617 1.4676474.43 2.23-.280225-.2715644-.474886-.6191734-.56-1zm1.93.89c.0298908.4051137-.0642861.8097253-.27 1.16-.1992036.3510859-.5034752.6308759-.87.8-.031732-.4020801.0626444-.8040535.27-1.15.2041074-.3496224.5067078-.6313538.87-.81zm-3 7.61c-.3264873.2366805-.7168949.3691402-1.12.38.2916493-.7805821 1.036714-1.2985415 1.87-1.3-.1261034.3994617-.3744499.7492455-.71 1zm-1-2.61c.0374969-.4014312.1903038-.7834485.44-1.1.4140108.7178727.3424219 1.6167104-.18 2.26-.2022351-.3513771-.2929082-.7559184-.26-1.16zm-1 2.73c-.1176901.3906025-.3471197.7382231-.66 1-.2601913-.7890614-.0054389-1.6568117.64-2.18.1207418.3874785.1207418.8025215 0 1.19zm.61 1.77c-.3656808.5928342-1.0134604.9527117-1.71.95-.1197966.0098797-.2402034.0098797-.36 0 .4330955-.705524 1.2560935-1.0713009 2.07-.92zm-3.46.19c.1927248-.3563745.4891384-.6458138.85-.83.0924083.8240156-.3332274 1.6195962-1.07 2-.047132-.4032901.0296016-.8113737.22-1.17zm-4.52.63c-.3685581-.1642665-.67880994-.4361726-.89-.78.81390654-.1513009 1.63690451.214476 2.07.92-.39856275.0696582-.80880178.0209857-1.18-.14zm-.28-2.63c-.12074182-.3874785-.12074182-.8025215 0-1.19.65691175.5197542.92032805 1.3938174.66 2.19-.31702378-.2580532-.54736281-.6070517-.66-1zm2 1.09c.7367726.3804038 1.1624083 1.1759844 1.07 2-.3586127-.1884628-.6515372-.4813873-.84-.84-.19184367-.3546423-.27201586-.758989-.23-1.16zm-4-1.21c-.3355501-.2507545-.58389661-.6005383-.71-1 .4031051.0108598.79351266.1433195 1.12.38.32727453.2375973.57482824.5688311.71.95-.4031051-.0108598-.79351266-.1433195-1.12-.38zm.51-3.71c.24969619.3165515.40250311.6985688.44 1.1.03290815.4040816-.05776491.8086229-.26 1.16-.25777723-.3118174-.41161976-.6964238-.44-1.1-.03290815-.4040816.05776491-.8086229.26-1.16zm-2.19.62c-.27421427-.2969391-.45202522-.6699935-.51-1.07.38553618.0962188.73367228.3051004 1 .6.27627294.2983416.45126203.6763181.5 1.08-.38674199-.098975-.73501583-.311422-1-.61zm-.12-2.52c-.36652482-.1691241-.67079642-.4489141-.87-.8-.20571392-.3502747-.29989075-.7548863-.27-1.16.3632922.1786462.66589258.4603776.87.81.20373438.347405.29784001.7482253.27 1.15zm.1-3c.08882626-.3793965.2829341-.7260177.56-1 .15761075.3722051.20280286.7824104.13 1.18-.08511396.3808266-.27977498.7284356-.56 1-.15761075-.3722051-.20280286-.7824104-.13-1.18zm.81 3.1c.05038562-.4012608.22123199-.7778201.49-1.08.37919116.7375845.26382447 1.6326709-.29 2.25-.18990263-.3586341-.25999066-.7686491-.2-1.17zm14.28.51c.6226239-.1849189 1.1516826-.5995865 1.48-1.16.3196774-.5605524.4194787-1.2199537.28-1.85l-.06-.28-.28.08c-.3116357.0916562-.6033363.2408984-.86.44.0599247-.3104682.0599247-.6295318 0-.94-.1188824-.6379322-.4765001-1.2065443-1-1.59l-.23-.17-.15.25c-.3549913.5505449-.4872695 1.2155107-.37 1.86.1285346.6313819.484376 1.1936114 1 1.58-.099203.2150796-.1633473.444649-.19.68-.1556966-.4304799-.4252725-.8106511-.78-1.1l-.22-.18-.17.23c-.371119.5295928-.5315585 1.1784814-.45 1.82.0830034.6427409.4085524 1.2294446.91 1.64-.1456641.1997539-.2634151.4184342-.35.65-.0600148-.4509872-.2434247-.8766364-.53-1.23l-.22-.22-.21.2c-.9880792.9058996-1.1060595 2.4221645-.27 3.47-.185522.1604139-.3441928.3494684-.47.56.0309673-.4563165-.0623415-.9124933-.27-1.32l-.13-.25-.24.14c-1.1668155.6764883-1.6050563 2.1445948-1 3.35-.2142067.1249979-.4095039.2798888-.58.46.1199456-.4386143.1199456-.9013857 0-1.34l-.07-.28-.27.09c-.6156499.2068876-1.1301375.6392001-1.44 1.21-.2894914.5531775-.3710936 1.1918033-.23 1.8l-.26.17-.25-.17c.2958538-1.2804095-.4258397-2.576865-1.67-3l-.27-.09-.07.28c-.11994558.4386143-.11994558.9013857 0 1.34-.1704961-.1801112-.36579332-.3350021-.58-.46.60505627-1.2054052.16681551-2.6735117-1-3.35l-.24-.14-.13.25c-.20765845.4075067-.30096734.8636835-.27 1.32-.12884199-.2083548-.28714811-.3969749-.47-.56.83605948-1.0478355.71807922-2.5641004-.27-3.47l-.22-.2-.17.23c-.2865753.3533636-.46998515.7790128-.53 1.23-.0865849-.2315658-.20433585-.4502461-.35-.65 1.03906258-.8541462 1.23601458-2.3684882.45-3.46l-.16-.23-.22.18c-.35472748.2893489-.62430343.6695201-.78 1.1-.0312387-.2344331-.09519466-.4633281-.19-.68.51989986-.3824194.87688271-.9464523 1-1.58.18263899-.6189894.12182413-1.2843755-.17-1.86l-.15-.25-.24.17c-.51845169.3837677-.87504439.9471842-1 1.58-.06653226.3300134-.06653226.6699866 0 1-.25666367-.1991016-.54836428-.3483438-.86-.44l-.28-.08-.06.28c-.29306786 1.3040984.4705701 2.613192 1.75 3l.25.07c.02149824.2060653.07199711.4080608.15.6-.34646836-.2280565-.74612839-.362425-1.16-.39h-.29v.29c.02365148 1.2897436 1.00674004 2.3586915 2.29 2.49h.25c.06765726.1934812.15830633.3781367.27.55-.28530891-.1039295-.58635758-.1580506-.89-.16h-.32-.29l.06.28c.19574823 1.2425721 1.26213713 2.1608514 2.52 2.17h.32.25c.10642595.1780715.23402111.3426022.38.49-.40953768-.063821-.82848322-.0260472-1.22.11l-.27.09.11.27c.25816286.5952009.72874836 1.0729164 1.32 1.34.31520291.1396649.6552846.2144828 1 .22.28663704-.0002727.5709841-.0510489.84-.15l.2-.06c.33.28.71.56 1.22.92l-.78.51.5.31.76-.5.77.5.5-.31-.78-.58c.52-.36.9-.64 1.23-.92l.2.06c.2687925.0997733.553288.1505761.84.15.3445894-.0065887.6844618-.0813606 1-.22.5903311-.2650462 1.0583861-.7438199 1.31-1.34l.12-.27-.27-.09c-.391603-.1356462-.8104492-.1734111-1.22-.11.1459789-.1473978.273574-.3119285.38-.49h.25.32c.5364845.0014467 1.0590891-.1704166 1.49-.49.5213717-.381045.8787548-.9457104 1-1.58l.06-.28h-.29-.32c-.3036424.0019494-.6046911.0560705-.89.16.1116937-.1718633.2023427-.3565188.27-.55h.25c.6461481-.0494207 1.2481424-.3468345 1.68-.83.4328426-.4792134.6685908-1.1043032.66-1.75v-.29h-.29c-.4138716.027575-.8135316.1619435-1.16.39.0780029-.1919392.1285018-.3939347.15-.6l.24-.07z"/><path d="m19.24 22.55c-.5573966.8197827-1.2010746 1.5774454-1.92 2.26-1.6755898 1.5060297-3.5878668 2.7256975-5.66 3.61-2.07213319-.8843025-3.98441015-2.1039703-5.66-3.61-.71892541-.6825546-1.36260344-1.4402173-1.92-2.26-2.64-3.86-3-8.33-3-11.81l10.56-.59 10.57.59c0 3.48-.35 7.95-3 11.81zm-17.58-20.79c2-.22 6.38-.66 10-.66s8 .44 10 .66l.55 7.74h-21.1zm21.64-.89-.47-.06c-3.7033896-.46382065-7.4284485-.73418782-11.16-.81-3.73120275.06917492-7.45626028.33286627-11.16.79l-.47.06v8.65 1.2c0 3.64.36 8.34 3.17 12.46.5843.8621216 1.2543835 1.6628713 2 2.39 1.94998889 1.7541533 4.11782953 3.2497953 6.45 4.45 2.3237759-1.202931 4.4817663-2.7020957 6.42-4.46.745216-.7274997 1.4152642-1.5282072 2-2.39 2.86-4.15 3.22-8.81 3.22-12.45v-.17z"/><path d="m29.62 1.81v6.09h1.34l1.59-4.37 5.16-.07v20.87l-4.13.45.17 1.21 5.79-.11 5.58.11.17-1.21-3.96-.45v-20.87l5.16.07 1.59 4.37h1.34v-6.09l-9.92.1z"/><path d="m67.5 24.26-9.47.11v-10.34l4.83.14 1.37 3.62h1.21l-.35-4.65.35-4.31h-1.21l-1.37 3.62-4.83.14v-9.16l9.13.1 1.93 4.48h1.17l-.34-6.2-13.68.1-4.75-.1-.17 1.2 3.1.45v20.87l-3.1.45.17 1.21 4.75-.11 13.68.11 1.2-6.38h-1.31z"/><path d="m107.5 1.5-2.07.58-8.54 22.32-1.66.23-1.65-.26-7.65-11.27 7.07-9.71 2.69-.38-.17-1.2-4 .1-4-.1-.17 1.2 3 .45-5.46 8-4.87-8.07 2.93-.45-.17-1.21-4.9.14-4.92-.14-.25 1.27 2.68.38 7.13 10.78-7.44 10.23-2.68.38.17 1.24 3.86-.11 4 .11.17-1.24-2.83-.42 5.88-8.59 5.35 8.54-2.92.45.17 1.24 4.92-.11 4 .09 2.83-.09 4.13.11.17-1.21-3-.45 2.24-6.44h8.5l2.35 6.44-2.93.45.24 1.22 4.55-.11 4.75.11.17-1.21-2.69-.38zm-5.34 14.77 3.57-10.27 3.76 10.32z"/><path d="m130.85 12.45-4-1.72c-1.9-.83-3.24-2-3.24-3.89 0-2.31 1.62-3.79 4.34-3.79 1.539423-.08052444 3.032401.54093682 4.06 1.69l1 3.13h1.72v-4.65c-1.847321-1.29268959-4.045327-1.99046919-6.3-2-4.79 1-8.23 3.2-8.23 7 0 3.06 2 4.65 4.51 5.72l4.17 1.82c2.07.9 3.58 2.24 3.58 4.58 0 2.52-1.72 4.38-4.68 4.38-1.834905-.0243118-3.572881-.8278532-4.78-2.21l-1.2-2.93h-2.42l.76 4.65c2.017124 1.6135451 4.549032 2.444494 7.13 2.34 6.48-1.34 8.68-4.48 8.68-7.71.05-3.52-2.38-5.24-5.1-6.41z"/><path d="m29.64 1.81v6.1h1.34l1.59-4.38 5.16-.07v20.88l-4.13.44.17 1.21 5.79-.1 5.58.1.17-1.21-3.96-.44v-20.88l5.17.07 1.58 4.38h1.34v-6.1l-9.91.1z"/><path d="m67.53 24.27-9.47.1v-10.33l4.82.14 1.38 3.61h1.2l-.34-4.65.34-4.3h-1.2l-1.38 3.61-4.82.14v-9.16l9.12.1 1.93 4.48h1.17l-.34-6.2-13.67.1-4.76-.1-.17 1.21 3.1.44v20.88l-3.1.44.17 1.21 4.76-.1 13.67.1 1.2-6.37h-1.31z"/><path d="m107.52 1.5-2.07.59-8.54 22.32-1.66.22-1.65-.26-7.6-11.26 7-9.71 2.7-.4-.17-1.21-4 .1-4-.1-.23 1.21 3 .44-5.47 8-4.83-8.01 2.93-.45-.17-1.2-4.89.13-4.93-.13-.17 1.2 2.69.38 7.13 10.78-7.44 10.23-2.69.38.17 1.24 3.86-.1 4 .1.17-1.24-2.82-.41 5.87-8.59 5.36 8.55-2.93.45.16 1.25 4.93-.1 4 .08 2.83-.08 4.13.1.18-1.21-3-.44 2.24-6.44h8.51l2.34 6.44-2.93.44.17 1.21 4.55-.1 4.75.1.17-1.21-2.68-.37zm-5.34 14.78 3.57-10.28 3.77 10.33z"/><path d="m130.87 12.45-4-1.72c-1.89-.82-3.24-2-3.24-3.89 0-2.31 1.62-3.79 4.34-3.79 1.541848-.07777102 3.036736.54295673 4.07 1.69l1 3.13h1.73v-4.65c-1.851261-1.29232196-4.052311-1.98996068-6.31-2-4.78 1-8.23 3.2-8.23 7 0 3.07 2 4.65 4.51 5.72l4.17 1.83c2.07.89 3.58 2.24 3.58 4.58 0 2.51-1.72 4.37-4.68 4.37-1.845976-.0132261-3.59752-.8179895-4.81-2.21l-1.2-2.93h-2.41l.75 4.65c2.01703 1.6147213 4.548152 2.4489621 7.13 2.35 6.48-1.35 8.68-4.48 8.68-7.72.05-3.51-2.36-5.24-5.08-6.41z"/></g><g fill="#fff"><path d="m164.65 1.86 3.83.1 3.2-.1.17 1.2-2.93.45v20.87l2.76.45-.17 1.17-4.14-.11-5 .11-.17-1.21 3.1-.45v-15.7l.44-4-8.74 21.36h-2.13l-6.87-17.39-1.27-4v19.77l3 .45-.27 1.17-3.68-.11-3.89.11-.18-1.21 2.76-.45v-20.76l-2.93-.52.17-1.2 3.55.1 3.79-.1 7.23 18.22.28 1.93z"/><path d="m181.5 11.67c-.580064-.4153047-1.289144-.6103015-2-.55-2.34 0-4.13 2.62-4.13 6.37s2 6.45 5.37 6.45c1.406686-.1103398 2.754302-.6126648 3.89-1.45l.55 1.31c-1.711219 1.2030337-3.605652 2.1215467-5.61 2.72-4.41 0-7.68-2.89-7.68-8.2s4-8 8.19-9c1.723347.04825283 3.388153.63583141 4.76 1.68v3.44h-2.55z"/><path d="m208.33 19-.9 5c-2.659041 1.2599668-5.473651 2.16118-8.37 2.68-6.4 0-12.4-4.34-12.4-12.36s5.34-11.95 13-13c2.953926.06133284 5.823956.99365768 8.25 2.68v4.65h-1.91l-1.1-3.2c-1.506151-1.53098909-3.572555-2.37994878-5.72-2.35-5.1 0-8.58 3.62-8.58 10.37 0 5.58 3.41 11.3 9.44 11.3 1.686922-.0782577 3.288687-.7637138 4.51-1.93l1.88-3.84z"/><path d="m225.86 17.56c0 5.14-3.13 8.1-8.47 9-4.58 0-7.68-3.55-7.68-8.23 0-5.17 3.13-8.1 8.47-9 4.58-.03 7.68 3.55 7.68 8.23zm-7.61 7.27c2.75 0 4.17-2.82 4.17-6.54 0-4.38-2.11-7.3-5.1-7.3-2.79 0-4.17 2.82-4.17 6.57 0 3.93 2.03 7.27 5.1 7.27z"/><path d="m250.31 25.93-3.31.07-.17-1.21 1.72-.34v-9.81c0-1.79-.76-2.59-2-2.59-1.292416.1765361-2.508916.7137369-3.51 1.55l-1 .73v10.16l1.55.34-.16 1.17-2.93-.11-3.1.11-.17-1.21 1.55-.34v-9.81c0-1.79-.76-2.59-2-2.59-1.296078.1741952-2.516416.7115602-3.52 1.55l-1 .73v10.16l1.72.34-.2 1.17-3.1-.11-4 .11-.17-1.21 2.41-.34v-12.53l-2.41.2-.17-1.2 4.13-1.07 1.48-.1.17 2.85 4.76-3.3c3.34 0 4.58 1 5 3.37l4.85-3.37c4.41 0 5.13 1.65 5.13 6v9.17l2.59.34-.18 1.19z"/><path d="m262 26.52c-2.107852.1133803-4.200368-.4167237-6-1.52v-21.28l-2.41.07-.17-1.17 4.13-1.07 1.72-.14v11.16l4.34-3.27c3.79 0 7 3 7 7.85.03 5.96-3.49 8.61-8.61 9.37zm1.62-14.47c-1.227853.0953227-2.390581.5906236-3.31 1.41l-1 .83v9.13c.884437.9302803 2.127501 1.4333385 3.41 1.38 2.76 0 4.51-2.52 4.51-6.58-.04-3.82-1.55-6.17-3.62-6.17z"/><path d="m280.76 11.74c-.791731-.4686589-1.690248-.7268535-2.61-.75-1.35 0-2.62.72-2.62 2 0 1.1.86 1.79 2.41 2.58l2.65 1.34c2.31 1.17 3.24 2.48 3.24 4.45 0 3.1-2.52 4.27-6.48 5.13-1.836103-.079376-3.627744-.5898055-5.23-1.49l-.66-3.89h2.21l1.17 2.86c.836608.5542914 1.816454.85311 2.82.86.726616.0702415 1.447986-.1780601 1.977429-.6806475.529443-.5025873.814927-1.2100671.782571-1.9393525 0-1.34-.72-1.93-2.52-2.86l-2.72-1.41c-1.648192-.6719883-2.769634-2.2241577-2.89-4 0-2.41 2.24-3.75 6.23-4.61 1.733902.0471473 3.418968.58456537 4.86 1.55v3.44h-1.82z"/><path d="m164.65 1.86 3.83.1 3.2-.1.17 1.2-2.93.45v20.87l2.76.45-.17 1.17-4.14-.11-5 .11-.17-1.21 3.1-.45v-15.7l.44-4-8.74 21.36h-2.13l-6.87-17.39-1.27-4v19.77l3 .45-.27 1.17-3.68-.11-3.89.11-.18-1.21 2.76-.45v-20.76l-2.93-.52.17-1.2 3.55.1 3.79-.1 7.23 18.22.28 1.93z"/><path d="m181.5 11.67c-.580064-.4153047-1.289144-.6103015-2-.55-2.34 0-4.13 2.62-4.13 6.37s2 6.45 5.37 6.45c1.406686-.1103398 2.754302-.6126648 3.89-1.45l.55 1.31c-1.711219 1.2030337-3.605652 2.1215467-5.61 2.72-4.41 0-7.68-2.89-7.68-8.2s4-8 8.19-9c1.723347.04825283 3.388153.63583141 4.76 1.68v3.44h-2.55z"/><path d="m208.33 19-.9 5c-2.659041 1.2599668-5.473651 2.16118-8.37 2.68-6.4 0-12.4-4.34-12.4-12.36s5.34-11.95 13-13c2.953926.06133284 5.823956.99365768 8.25 2.68v4.65h-1.91l-1.1-3.2c-1.506151-1.53098909-3.572555-2.37994878-5.72-2.35-5.1 0-8.58 3.62-8.58 10.37 0 5.58 3.41 11.3 9.44 11.3 1.686922-.0782577 3.288687-.7637138 4.51-1.93l1.88-3.84z"/><path d="m225.86 17.56c0 5.14-3.13 8.1-8.47 9-4.58 0-7.68-3.55-7.68-8.23 0-5.17 3.13-8.1 8.47-9 4.58-.03 7.68 3.55 7.68 8.23zm-7.61 7.27c2.75 0 4.17-2.82 4.17-6.54 0-4.38-2.11-7.3-5.1-7.3-2.79 0-4.17 2.82-4.17 6.57 0 3.93 2.03 7.27 5.1 7.27z"/><path d="m250.31 25.93-3.31.07-.17-1.21 1.72-.34v-9.81c0-1.79-.76-2.59-2-2.59-1.292416.1765361-2.508916.7137369-3.51 1.55l-1 .73v10.16l1.55.34-.16 1.17-2.93-.11-3.1.11-.17-1.21 1.55-.34v-9.81c0-1.79-.76-2.59-2-2.59-1.296078.1741952-2.516416.7115602-3.52 1.55l-1 .73v10.16l1.72.34-.2 1.17-3.1-.11-4 .11-.17-1.21 2.41-.34v-12.53l-2.41.2-.17-1.2 4.13-1.07 1.48-.1.17 2.85 4.76-3.3c3.34 0 4.58 1 5 3.37l4.85-3.37c4.41 0 5.13 1.65 5.13 6v9.17l2.59.34-.18 1.19z"/><path d="m262 26.52c-2.107852.1133803-4.200368-.4167237-6-1.52v-21.28l-2.41.07-.17-1.17 4.13-1.07 1.72-.14v11.16l4.34-3.27c3.79 0 7 3 7 7.85.03 5.96-3.49 8.61-8.61 9.37zm1.62-14.47c-1.227853.0953227-2.390581.5906236-3.31 1.41l-1 .83v9.13c.884437.9302803 2.127501 1.4333385 3.41 1.38 2.76 0 4.51-2.52 4.51-6.58-.04-3.82-1.55-6.17-3.62-6.17z"/><path d="m280.76 11.74c-.791731-.4686589-1.690248-.7268535-2.61-.75-1.35 0-2.62.72-2.62 2 0 1.1.86 1.79 2.41 2.58l2.65 1.34c2.31 1.17 3.24 2.48 3.24 4.45 0 3.1-2.52 4.27-6.48 5.13-1.836103-.079376-3.627744-.5898055-5.23-1.49l-.66-3.89h2.21l1.17 2.86c.836608.5542914 1.816454.85311 2.82.86.726616.0702415 1.447986-.1780601 1.977429-.6806475.529443-.5025873.814927-1.2100671.782571-1.9393525 0-1.34-.72-1.93-2.52-2.86l-2.72-1.41c-1.648192-.6719883-2.769634-2.2241577-2.89-4 0-2.41 2.24-3.75 6.23-4.61 1.733902.0471473 3.418968.58456537 4.86 1.55v3.44h-1.82z"/></g></g></svg>