<svg xmlns="http://www.w3.org/2000/svg" viewBox="0 0 50 50"><defs><style>.a{fill:#ffeaec;}.b{fill:none;stroke-width:1.5px;}.b,.c{stroke:#f794ab;}.c,.d{fill:#f794ab;}.c{stroke-width:0.5px;}</style></defs><g transform="translate(-65 -47)"><circle class="a" cx="25" cy="25" r="25" transform="translate(65 47)"/><g transform="translate(73 58)"><g transform="translate(0)"><path class="b" d="M33.575,34.733a4.228,4.228,0,0,0,.609-2.872,3.23,3.23,0,0,0-1.265-1.928,3.9,3.9,0,0,0-.121-4.077,6.654,6.654,0,0,0-7.03-2.691,7,7,0,0,0-3.321,1.681,5.828,5.828,0,0,0-1.66,2.611,11.266,11.266,0,0,0-7.231,0A5.93,5.93,0,0,0,11.9,24.838a7,7,0,0,0-3.321-1.681,6.654,6.654,0,0,0-7.03,2.691,3.9,3.9,0,0,0-.121,4.077A3.211,3.211,0,0,0,.159,31.854a4.173,4.173,0,0,0,.609,2.872,5.151,5.151,0,0,0-.4,4.452A4.228,4.228,0,0,0,2.5,41.388a12.539,12.539,0,0,0-.047,5.062,8.581,8.581,0,0,0,5.021,6,22.841,22.841,0,0,0,9.7,1.747,22.841,22.841,0,0,0,9.7-1.747,8.613,8.613,0,0,0,5.021-6,12.539,12.539,0,0,0-.047-5.062,4.228,4.228,0,0,0,2.122-2.209A5.138,5.138,0,0,0,33.575,34.733Zm-.844,3.93a2.948,2.948,0,0,1-1.205,1.386,21.313,21.313,0,0,0-2.283-5.276.679.679,0,0,0-.924-.228.666.666,0,0,0-.228.917c.261.428.5.87.73,1.312.007.02.02.033.027.054s.02.04.033.06c1.607,3.234,2.27,6.735,1.7,9.26a7.313,7.313,0,0,1-4.292,5.082,21.535,21.535,0,0,1-9.119,1.62,21.432,21.432,0,0,1-9.119-1.62,7.313,7.313,0,0,1-4.292-5.082A14.275,14.275,0,0,1,4.993,37.9c0-.007.007-.007.007-.013a.676.676,0,0,1,.047-.1,20.591,20.591,0,0,1,1.2-2.323.672.672,0,0,0-.228-.917.649.649,0,0,0-.382-.094.69.69,0,0,0-.542.321A21.414,21.414,0,0,0,2.81,40.042a2.98,2.98,0,0,1-1.205-1.386,3.888,3.888,0,0,1,.516-3.615.667.667,0,0,0-.04-.75,3.17,3.17,0,0,1-.609-2.169A2.184,2.184,0,0,1,2.683,30.7a.7.7,0,0,0,.335-.462.681.681,0,0,0-.147-.549,2.669,2.669,0,0,1-.2-3.107A4.845,4.845,0,0,1,5.16,24.643a5.926,5.926,0,0,1,3.14-.181,5.121,5.121,0,0,1,4,3.482,14.015,14.015,0,0,0-3.127,2l-.02.02c-.06.054-.127.107-.187.161-.02.02-.04.033-.06.054s-.06.054-.094.08-.087.08-.134.121a.668.668,0,0,0-.047.944.83.83,0,0,0,.147.121c.007,0,.007.007.013.007l.04.02c.007,0,.013.007.02.007a.1.1,0,0,0,.04.013c.007,0,.013.007.027.007s.027.007.033.013.02.007.027.007.02.007.033.007.02.007.033.007H9.2a.06.06,0,0,0,.033-.007c.007,0,.02-.007.027-.007s.02-.007.033-.007.013-.007.027-.007.027-.007.04-.013.013-.007.02-.007l.04-.02c.007,0,.007-.007.013-.007a.717.717,0,0,0,.147-.1c.074-.067.147-.127.221-.194a11.267,11.267,0,0,1,7.371-2.979,11.267,11.267,0,0,1,7.371,2.979c.074.06.147.127.221.194a.677.677,0,0,0,.422.174h.067a.634.634,0,0,0,.462-.221.668.668,0,0,0-.047-.944c-.04-.04-.087-.074-.127-.114s-.067-.06-.1-.087a.384.384,0,0,1-.054-.047c-.067-.054-.127-.114-.194-.167-.007-.007-.013-.007-.02-.013a14.054,14.054,0,0,0-3.133-2,5.11,5.11,0,0,1,4-3.482,5.856,5.856,0,0,1,3.14.181,4.888,4.888,0,0,1,2.5,1.935,2.693,2.693,0,0,1-.2,3.107.681.681,0,0,0-.147.549.66.66,0,0,0,.335.462,2.178,2.178,0,0,1,1.212,1.419,3.163,3.163,0,0,1-.609,2.176.656.656,0,0,0-.04.75A3.935,3.935,0,0,1,32.731,38.663Z" transform="translate(-0.034 -22.996)"/><path class="c" d="M322.371,232.7a2.473,2.473,0,0,0-2.471,2.471.67.67,0,1,0,1.339,0,1.132,1.132,0,0,1,2.263,0,.67.67,0,1,0,1.339,0A2.473,2.473,0,0,0,322.371,232.7Z" transform="translate(-298.484 -218.66)"/><path class="c" d="M123.5,234.684a.67.67,0,1,0,1.339.027,2.471,2.471,0,0,0-4.941-.094v.094a.669.669,0,0,0,.67.656h.013a.672.672,0,0,0,.656-.683v-.047a1.132,1.132,0,0,1,2.263.047Z" transform="translate(-111.875 -218.187)"/><path class="d" d="M177.02,233.245a5.018,5.018,0,0,1-.79.241h-.013a3.787,3.787,0,0,1-3.7-1.225v-.02a2.38,2.38,0,0,0,2.236-2.169,8.91,8.91,0,0,0-.02-2.383,5.013,5.013,0,0,0-1.024-2.591,2.564,2.564,0,0,0-3.9,0,4.98,4.98,0,0,0-1.024,2.6,8.922,8.922,0,0,0-.027,2.383,2.373,2.373,0,0,0,1.058,1.761,3.043,3.043,0,0,0,1.352.422h0a3.8,3.8,0,0,1-3.783,1.205.147.147,0,0,0-.054-.007,5.836,5.836,0,0,1-.663-.214.668.668,0,1,0-.5,1.239c.161.067.328.121.482.174a4.908,4.908,0,0,0,.877,1.567,5.934,5.934,0,0,0,8.516,0,4.837,4.837,0,0,0,.864-1.526c.194-.06.4-.127.6-.208a.668.668,0,0,0,.368-.87A.646.646,0,0,0,177.02,233.245Z" transform="translate(-154.66 -210.729)"/></g></g></g></svg>