<svg enable-background="new 0 0 576 341.9" viewBox="0 0 576 341.9" xmlns="http://www.w3.org/2000/svg" xmlns:xlink="http://www.w3.org/1999/xlink"><clipPath id="a"><path d="m255.2 268.2h204.9v73.5h-204.9z"/></clipPath><clipPath id="b"><path d="m255.2 268.2h204.9v73.5h-204.9z"/></clipPath><clipPath id="c"><path d="m255.2 268.2h204.9v73.5h-204.9z"/></clipPath><clipPath id="d"><circle cx="293.3" cy="45.4" r="44.6"/></clipPath><g fill="#fff"><path d="m78.8 153.7c3.5 1.7 7 2.5 10.5 2.5 2.4 0 4.3-.5 5.7-1.4 1.3-.9 2-2.2 2-3.9 0-1.2-.4-2.2-1.2-3s-2.1-1.4-4-2l-3.1-1c-3.2-1-5.6-2.4-7.1-4.1s-2.3-3.8-2.3-6.3c0-3.3 1.2-5.9 3.7-7.8s5.8-2.9 10.1-2.9c3.5 0 6.8.7 10 2.2v5.5c-3.3-1.3-6.3-2-9.2-2-2.3 0-4 .4-5.2 1.2s-1.8 1.9-1.8 3.4c0 1 .3 1.9 1 2.5s1.8 1.2 3.6 1.7l3.2 1c3.5 1.1 6 2.6 7.6 4.4s2.4 4.1 2.4 6.9c0 3.6-1.3 6.3-3.8 8.3-2.5 1.9-6.1 2.9-10.7 2.9-4 0-7.5-.7-10.5-2.2z"/><path d="m142.9 161.2-15.2-24.2v24.2h-6.9v-36.6h6.6l15.2 24.2v-24.2h6.9v36.6z"/><path d="m190.1 161.2-2.5-7.9h-13.5l-2.5 7.9h-7.4l12.4-36.6h8.6l12.3 36.6zm-14.3-13.3h10.1l-5.1-16.3z"/><path d="m236.3 159.6c-3.1 1.6-6.5 2.4-10.2 2.4-5.1 0-9.1-1.7-11.9-5s-4.2-8-4.2-14.2c0-6 1.4-10.7 4.2-14.1s6.8-5 11.9-5c3.6 0 6.9.8 10 2.4v5.8c-1.7-.8-3.2-1.4-4.4-1.7-1.3-.3-2.7-.5-4.3-.5-3.1 0-5.4 1.1-7 3.3s-2.4 5.5-2.4 9.8c0 8.7 3.1 13.1 9.4 13.1 1.5 0 2.9-.2 4.3-.5s2.9-.9 4.6-1.7z"/><path d="m252.9 161.2v-36.6h7.4v14.7l12.8-14.7h8.9l-15.2 17.1 15.6 19.4h-9.3l-12.8-16.3v16.3h-7.4z"/><path d="m294.8 150.7v-5.7h14.4v5.7z"/><path d="m323 153.7c3.5 1.7 7 2.5 10.5 2.5 2.4 0 4.3-.5 5.7-1.4 1.3-.9 2-2.2 2-3.9 0-1.2-.4-2.2-1.2-3s-2.1-1.4-4-2l-3.1-1c-3.2-1-5.6-2.4-7.1-4.1s-2.3-3.8-2.3-6.3c0-3.3 1.2-5.9 3.7-7.8s5.8-2.9 10.1-2.9c3.5 0 6.8.7 10 2.2v5.5c-3.3-1.3-6.3-2-9.2-2-2.3 0-4 .4-5.2 1.2s-1.8 1.9-1.8 3.4c0 1 .3 1.9 1 2.5s1.8 1.2 3.6 1.7l3.2 1c3.5 1.1 6 2.6 7.6 4.4s2.4 4.1 2.4 6.9c0 3.6-1.3 6.3-3.8 8.3-2.5 1.9-6.1 2.9-10.7 2.9-4 0-7.5-.7-10.5-2.2z"/><path d="m365 161.2v-36.6h7.4v36.6z"/><path d="m389.6 161.2v-5.5l17.5-25.1h-16.6v-5.9h24.9v5.5l-17.5 25.1h17.6v5.9z"/><path d="m440.1 145.7v9.6h16.3v5.9h-23.7v-36.6h23.6v5.9h-16.1v9.3h14v5.9z"/><path d="m472.4 161.2v-35.8c4-.8 7.8-1.1 11.2-1.1 6 0 10.5 1.6 13.6 4.7s4.6 7.7 4.6 13.7c0 6.1-1.5 10.7-4.6 13.9s-7.6 4.7-13.5 4.7h-11.3zm11.3-5.9c3.6 0 6.1-1 7.8-3 1.6-2 2.5-5.2 2.5-9.6s-.8-7.6-2.4-9.6-4.2-3-7.7-3c-1.5 0-2.9.1-4 .3v24.9z"/></g><circle cx="293.3" cy="45.4" fill="#4badcf" r="44.6"/><path d="m-.3 230.4c4.9 2.1 9.5 3.2 13.9 3.2 4.2 0 7.4-.9 9.6-2.8 2.3-1.8 3.4-4.5 3.4-7.9 0-2.6-.7-4.7-2.2-6.3s-4-2.9-7.5-4l-5-1.5c-3.8-1.2-6.6-2.7-8.4-4.6s-2.7-4.3-2.7-7.2c0-4 1.5-7.2 4.5-9.6s7-3.6 12.1-3.6c4.1 0 8 .9 11.8 2.6v3.5c-4-1.7-7.9-2.5-11.6-2.5-3.8 0-6.8.8-9 2.5-2.1 1.7-3.2 4-3.2 7 0 2.1.6 3.8 1.8 5s3.3 2.3 6.4 3.3l5 1.6c4.5 1.4 7.7 3.3 9.7 5.4 2 2.2 2.9 5 2.9 8.4 0 4.4-1.6 7.9-4.7 10.5s-7.3 3.9-12.7 3.9c-4.9 0-9.4-1-13.4-3z" fill="#fff"/><path d="m72.6 237.2c-6.4 0-11.4-2.2-14.8-6.7-3.5-4.4-5.2-10.7-5.2-18.9s1.7-14.5 5.2-18.9 8.4-6.7 14.8-6.7 11.4 2.2 14.8 6.7c3.5 4.4 5.2 10.7 5.2 18.9s-1.7 14.5-5.2 18.9c-3.4 4.5-8.3 6.7-14.8 6.7zm0-3.5c10.3 0 15.4-7.3 15.4-22s-5.1-22-15.4-22-15.4 7.3-15.4 22c0 14.6 5.2 22 15.4 22z" fill="#fff"/><path d="m147.3 187.1h4.3v32.7c0 5.7-1.5 10-4.4 12.9-2.9 3-7.1 4.4-12.6 4.4s-9.7-1.5-12.6-4.4c-2.9-3-4.4-7.3-4.4-12.9v-32.7h4.4v32.8c0 9.1 4.2 13.7 12.6 13.7 4.2 0 7.4-1.1 9.5-3.4 2.1-2.2 3.2-5.7 3.2-10.3z" fill="#fff"/><path d="m188 236.2v-45.5h-14.8v-3.6h34v3.6h-14.8v45.5z" fill="#fff"/><path d="m229.2 236.2v-49h4.4v22h25.8v-22h4.4v49h-4.4v-23.5h-25.8v23.5z" fill="#fff"/><path d="m323.2 236.2v-48c5.3-1 10-1.5 14-1.5 5.1 0 9.1 1.1 11.9 3.2s4.2 5.2 4.2 9.1c0 2.8-.8 5.2-2.3 7.2s-3.7 3.4-6.6 4.3c2.3.4 4.3 1.2 6 2.3 1.6 1.1 2.9 2.5 3.7 4.3.9 1.7 1.3 3.7 1.3 5.9 0 4.3-1.4 7.5-4.3 9.8s-7 3.4-12.4 3.4zm13.5-46c-2.6 0-5.7.3-9.2.8v18.1h10.5c3.4 0 6-.9 8-2.6 2-1.8 2.9-4.1 2.9-7.2.1-6-4-9.1-12.2-9.1zm1.9 42.5c8.3 0 12.4-3.3 12.4-9.9 0-3.2-1.1-5.7-3.3-7.5s-5.3-2.7-9.4-2.7h-10.8v20.1z" fill="#fff"/><path d="m383.7 213v19.6h23.9v3.6h-28.3v-49h28.2v3.6h-23.8v18.7h20.8v3.6h-20.8z" fill="#fff"/><path d="m459.9 236.2-4.6-13.2h-21.9l-4.5 13.2h-4.6l17.4-49h5.1l17.4 49zm-25.3-16.6h19.5l-9.9-28.3z" fill="#fff"/><path d="m514.7 234.2c-4 2-8.2 3-12.6 3-6.2 0-11.1-2.3-14.6-6.8s-5.3-10.8-5.3-18.8 1.8-14.3 5.3-18.8 8.4-6.8 14.6-6.8c4.2 0 8.4 1 12.4 3v3.6c-2.1-1-4.2-1.8-6-2.2-1.9-.5-3.8-.7-5.8-.7-5.2 0-9.1 1.9-11.7 5.6s-4 9.2-4 16.4 1.3 12.6 4 16.4c2.6 3.7 6.5 5.6 11.7 5.6 4 0 8-1 12-2.9z" fill="#fff"/><path d="m539.3 236.2v-49h4.4v22h25.8v-22h4.4v49h-4.4v-23.5h-25.8v23.5z" fill="#fff"/><path clip-path="url(#a)" d="m424.6 307.3c6.5-4.2 13.6-9.4 18-13.5 2.7-2.4 9.5-7.9 11.1-13 1.1-3.6-2-6.5-5.2-8.2-6.7-3.6-18.4-4.4-30.2-4.4-28.5 0-68.8 5.7-106.6 13.5l-.9.2c-.2 0-.3.2-.3.4s.2.3.4.3l.9-.2c31.2-5.5 96-13.2 109.9.6 4.4 4.4 3.2 10.1-2.3 16.8 2.6 1.6 4.5 4.2 5.2 7.5zm-60.2 34.1-.4.2c-.1.1-.4.1-.5-.1s-.1-.4.1-.5l.4-.3c11.1-6.8 21.4-13.3 30.2-19.5.3-.2.6-.4.8-.6.3 1.2.8 2.4 1.5 3.4 0 0 0 0-.1 0s-.1.1-.2.1c-.3.1-6.2 3.4-6.2 3.4-7.6 4.1-15 8.1-21.8 11.7-1.3.9-2.5 1.6-3.8 2.2z" fill="#cc2427"/><g fill="#fff"><path d="m306.1 309.1c0 .8-.2 1.6-.4 2.8l-1.5 8.6c-.1.8.2 1.4.9 1.8v.3h-8.7l-.1-2.2c-1.3.8-2.8 1.4-4.2 1.8s-2.5.5-4.2.5c-2.8 0-4.4-.3-5.5-1.3s-1.7-1.7-1.6-3.1c0-.8.5-1.8 1.1-2.5s1.4-1.2 2.3-1.6 2-.7 3.5-1 3.7-.5 6.6-.7c1.5-.1 2.4-.5 2.9-.6.6-.2.8-.5.9-1 .2-.9-.1-1.4-1.3-1.6-3.1-.6-9 .4-12.1 1.2l1.7-4.5c4-.6 7.8-1 11.7-1 6.1 0 8.1 1.8 8 4.1zm-9 5.6c-.4.1-.8.3-1.4.4s-1.7.3-3.2.6c-1.1.2-1.8.4-2.3.7-.4.3-.6.7-.7 1.1-.1.5.1.8.5 1.1s1.1.4 2.1.4c.7 0 1.5-.1 2.2-.3s1.3-.5 1.8-.9c.3-.3.6-.7.8-1.1-.1-.3 0-1 .2-2z"/><path d="m334.9 301.5c.2-1.4 2.5-2.5 4.9-2.5 2.5 0 4.3 1.1 4.1 2.5-.3 1.4-2.5 2.5-5 2.5-2.4.1-4.2-1.1-4-2.5zm-3.5 21.1 3-17.1h8.4l-3 17.1z"/><path clip-path="url(#b)" d="m381.5 309.1c0 .8-.2 1.6-.4 2.8l-1.5 8.6c-.1.8.1 1.3.8 1.8l-.1.3h-8.7l-.1-2.2c-1.3.8-2.8 1.4-4.2 1.8s-2.5.5-4.2.5c-2.8 0-4.4-.3-5.5-1.3s-1.7-1.7-1.6-3.1c0-.8.4-1.8 1.1-2.5.6-.7 1.4-1.2 2.3-1.6s2-.7 3.5-1c1.6-.2 3.7-.5 6.6-.7 1.5-.1 2.4-.5 2.9-.6.6-.2.8-.5.9-1 .2-.9-.1-1.4-1.3-1.6-3.2-.6-9 .4-12.1 1.2l1.6-4.5c4-.6 7.8-1 11.7-1 6.3 0 8.3 1.8 8.3 4.1zm-9 5.6c-.4.1-.9.3-1.4.4-.6.1-1.7.3-3.2.6-1.1.2-1.8.4-2.2.7s-.6.7-.7 1.1c-.1.5.1.9.5 1.1.4.3 1.1.4 2.1.4.7 0 1.4-.1 2.1-.3s1.3-.5 1.8-.9c.3-.3.6-.7.7-1.1 0-.3.1-.9.3-2z"/><path clip-path="url(#b)" d="m279.5 316.4c-2.7.5-4.3.7-6.9.7-4 0-7.2-2-7-5.6.1-2.4 3-7.5 10.3-7.5 2.3 0 4.1.4 6.5 1.8l1.1-5.9c-3.3-1.2-5.4-1.4-8.3-1.4-9.5.1-18.7 4.4-19.9 13.3-1.2 9 9.8 11.2 14.7 11.2 2.8 0 5.7-.1 8.5-.4z"/><path d="m347.4 305.4.6-3.5 8.7-1.9-.9 5.4h4.3l-.8 3.4h-4.2l-2.5 13.7s-8.4-.1-8.4 0l2.5-13.7h-3.2l.6-3.5h3.3z"/><path d="m390 322.6h-8.5l4.3-23.9 8.2.3z"/><path clip-path="url(#c)" d="m305.2 328.5 4.1-22.9h7.3l-.6 2.9c.6-.9 1.7-1.6 3.1-2.2s3-1 4.7-1c1.9 0 3.1.1 4.5.8s2.4 1.8 3 3.2c.5 1.4.7 3 .4 4.7-.5 2.8-1.9 5.1-4.1 6.7s-4.3 2.1-7.1 2.1c-1 0-1.9-.1-2.6-.3s-1.2-.4-1.7-.7c-.4-.3-.8-.6-1.4-1.2l-1.4 7.9zm15.2-19c-1.1 0-2.1.3-3 1s-1.4 1.6-1.7 2.9c-.3 1.5-.1 2.6.5 3.2.6.7 1.5 1 2.6 1 .8 0 1.5-.1 2.1-.4.7-.4 1.2-.8 1.6-1.4.5-.7.8-1.4.9-2.3.2-1.3 0-2.4-.6-3-.5-.7-1.3-1-2.4-1z"/><path clip-path="url(#c)" d="m457.6 322.1.7.4c-1.7 3.4-5.1 6.1-9.1 6.1-3.3 0-6-2.2-6.1-6.3-.3-7.3 6.6-14.1 12.2-14.1 2.4 0 4.6 1.1 4.7 3.7.2 5.8-8 7.6-13.4 7.7-.2.6-.2 1.2-.2 2.2.1 2.4 1.6 4.4 4.6 4.4 2.7.1 5.3-2 6.6-4.1zm-.7-10.5c0-1.4-.7-2.3-2.2-2.3-3.4 0-7.1 6.7-7.7 9.4 5.6 0 10-3.3 9.9-7.1z"/><path d="m395.3 317.1c-.3-9.1 6.8-18.4 17.2-18.4 6.9 0 11.5 4.6 11.7 11.7.3 9.6-6.3 18.4-17.2 18.4-6.9 0-11.4-4.6-11.7-11.7zm4.5.3c.2 5.3 3.6 9.7 8 9.7 8.5 0 12.2-10.5 11.9-17.5-.2-5.4-3.6-9.7-8-9.7-7.4 0-12.1 10.4-11.9 17.5z"/><path d="m424.1 310.3v1.1h.3c.6-.1 1.1-.1 1.5-.1.6 0 1.2.1 1.2.7 0 .4-.6 3-.8 3.6l-1.3 5.7c-.5 2.4-1.1 4.8-1.6 6.8h3.3l1.9-9.1c5.7-6 8-7.9 9.3-7.9.6 0 1 .3 1.1 1 0 1.1-.6 3.4-.8 4.1l-1.9 6.6c-.4 1.5-.8 2.8-.7 3.8.1 1.5.9 2.1 2.2 2.1 2.4 0 4.2-2.6 5.8-5.1l-.5-.8-.2.3c-.6 1-1.9 2.9-3 2.9-.4 0-.7-.2-.7-.8 0-.8.3-1.9.5-2.7l2.1-7.8c.6-2.1.8-3.5.8-4.3-.1-1.5-.9-2.1-2.2-2.1-2.2 0-5.1 1.6-11.3 8.7h-.1l.8-3.5c.4-1.9.8-3.9 1.2-5.3-2.1.8-4.8 1.6-6.7 1.9z"/><path d="m122.5 317.7v-13.7c.6-.1 1.2-.2 2-.3.7-.1 1.3-.1 1.8-.1 1.5 0 2.8.4 3.7 1.1.9.8 1.3 1.8 1.3 3.1s-.5 2.4-1.4 3.1c-.9.8-2.2 1.1-3.8 1.1h-2.3v5.6h-1.3zm3.6-13.1c-.7 0-1.5.1-2.4.2v6.3h2.3c1.3 0 2.2-.3 2.9-.9s1-1.4 1-2.4c0-1.1-.3-1.9-1-2.4s-1.5-.8-2.8-.8z"/><path d="m133.3 317.7v-10l1-.1.1.9c.9-.7 1.8-1.1 2.9-1.1.4 0 .6 0 .9.1v1c-.3-.1-.7-.1-.9-.1-.9 0-1.9.3-2.7 1v8.3z"/><path d="m147.1 317.3c-.9.4-1.9.7-3 .7-1.5 0-2.7-.5-3.5-1.4s-1.2-2.2-1.2-3.9.4-3 1.2-4 1.8-1.4 3.2-1.4c1.2 0 2.1.4 2.8 1.1s1 1.8 1 3c0 .5 0 .9-.1 1.4h-6.9c0 2.8 1.2 4.2 3.7 4.2 1 0 1.9-.2 2.9-.6v.9zm-3.4-9c-.9 0-1.6.3-2.2 1s-.9 1.6-.9 2.7h5.8c0-.2 0-.4 0-.6 0-1-.2-1.8-.7-2.3-.5-.6-1.2-.8-2-.8z"/><path d="m149.4 316.4c1 .4 2 .7 3.1.7 1.8 0 2.7-.7 2.7-2.1 0-.5-.1-.8-.4-1.1s-.7-.5-1.3-.7l-1.5-.5c-.9-.3-1.5-.6-1.9-1s-.6-.9-.6-1.6c0-.8.3-1.5 1-2s1.6-.8 2.7-.8c.9 0 1.8.2 2.7.5v.9c-.9-.3-1.8-.5-2.6-.5s-1.4.2-1.9.5c-.4.3-.7.7-.7 1.3 0 .4.1.7.4.9.2.2.7.5 1.3.7l1.6.5c.8.3 1.4.6 1.8 1.1.4.4.6 1 .6 1.7 0 1-.3 1.7-1 2.3s-1.6.8-2.8.8c-1.1 0-2.1-.2-3-.6z"/><path d="m166.1 317.3c-.9.4-1.9.7-3 .7-1.5 0-2.7-.5-3.5-1.4s-1.2-2.2-1.2-3.9.4-3 1.2-4 1.8-1.4 3.2-1.4c1.2 0 2.1.4 2.8 1.1s1 1.8 1 3c0 .5 0 .9-.1 1.4h-6.9c0 2.8 1.2 4.2 3.7 4.2 1 0 1.9-.2 2.9-.6v.9zm-3.4-9c-.9 0-1.6.3-2.2 1s-.9 1.6-.9 2.7h5.8c0-.2 0-.4 0-.6 0-1-.2-1.8-.7-2.3-.5-.6-1.2-.8-2-.8z"/><path d="m175.9 317.7v-6.9c0-1.6-.8-2.5-2.5-2.5-.4 0-.9.1-1.5.2-.5.1-1 .3-1.6.6v8.6h-1.2v-10l1-.1.1.7c1.2-.6 2.3-1 3.4-1s1.9.3 2.5.8c.6.6.9 1.4.9 2.4v7.1h-1.1z"/><path d="m181.8 308.5v6.4c0 .7.1 1.2.4 1.5s.7.5 1.4.5c.4 0 .9-.1 1.4-.2v.9c-.6.2-1.1.3-1.5.3-.9 0-1.6-.3-2.1-.8s-.7-1.2-.7-2.2v-6.4h-1.5v-.9l1.6-.1.1-2.5 1-.1v2.6h3v.9h-3.1z"/><path d="m194.1 317.3c-.9.4-1.9.7-3 .7-1.5 0-2.7-.5-3.5-1.4s-1.2-2.2-1.2-3.9.4-3 1.2-4 1.8-1.4 3.2-1.4c1.2 0 2.1.4 2.8 1.1s1 1.8 1 3c0 .5 0 .9-.1 1.4h-6.9c0 2.8 1.2 4.2 3.7 4.2 1 0 1.9-.2 2.9-.6v.9zm-3.4-9c-.9 0-1.6.3-2.2 1s-.9 1.6-.9 2.7h5.8c0-.2 0-.4 0-.6 0-1-.2-1.8-.7-2.3-.4-.6-1.1-.8-2-.8z"/><path d="m205 302.5v15.1l-1 .1-.1-.7c-1.1.6-2.2 1-3.1 1-1.3 0-2.3-.5-3.1-1.4-.7-.9-1.1-2.2-1.1-3.8 0-1.8.4-3.1 1.3-4.1.8-.9 2.1-1.4 3.7-1.4.8 0 1.6.1 2.3.3v-5zm-4 14.5c.4 0 .9-.1 1.4-.2s1-.3 1.4-.6v-7.6c-.7-.2-1.4-.3-2.2-.3-1.3 0-2.2.4-2.9 1.1-.6.7-.9 1.9-.9 3.4 0 1.4.3 2.4.8 3.1.6.8 1.3 1.1 2.4 1.1z"/><path d="m214.6 308.2c.5-.3 1-.5 1.6-.7.5-.2 1-.2 1.5-.2 1.3 0 2.3.5 3.1 1.4.7.9 1.1 2.2 1.1 3.8 0 1.8-.4 3.1-1.3 4.1-.8.9-2.1 1.4-3.7 1.4-1.1 0-2.3-.2-3.5-.6v-14.8l1.2-.2zm2.9.1c-.4 0-.9.1-1.4.2s-1 .3-1.4.6v7.6c.7.2 1.4.3 2.2.3 1.3 0 2.2-.4 2.9-1.1.6-.7.9-1.9.9-3.4 0-1.4-.3-2.4-.8-3.1-.7-.8-1.4-1.1-2.4-1.1z"/><path d="m222.9 321.1c.9-.2 1.7-.5 2.2-1s1-1.3 1.5-2.4l-3.8-10.2h1.3l3.1 8.8 3.2-8.8h1.2l-3.8 10c-.4 1-.7 1.7-1.1 2.4-.4.6-.9 1.1-1.4 1.4-.5.4-1.2.6-2.1.8z"/><path clip-path="url(#d)" d="m305.7 64.6-1.7-46.7c0-.9-.1-3.1-1.1-3.1-.7 0-1.1 1.2-1.1 3.5l-1.3 44.3c0 .4-.4 1.2-.6 1.2-.5 0-1.1-1.1-1.1-1.6 0-.4-1.4-44.1-1.4-45.4s-.4-2.1-1-2.1c-.3 0-.8.2-.8 1.6l-.3 3.3-1.1 39.9v.3c0 1.4 0 3.1-.9 4h-.2c-.9-.9-.9-2.6-.9-4v-.3l-1.1-39.9-.3-3.3c0-1.5-.6-1.6-.8-1.6-.6 0-1 .8-1 2.1s-1.4 44.9-1.4 45.4c0 .6-.6 1.6-1.1 1.6-.2 0-.6-.7-.6-1.2l-1.3-44.3c0-2.3-.4-3.5-1.1-3.5-1 0-1.1 2.2-1.1 3.1l-1.8 48c0 .3.4 7.8 2.9 10 .8.7 1.2 1 1.6 1.4.5.4 1 .9 2.5 2.2 1.7 1.4 2.2 11.2 2.2 14.9v27.9c-1.1 14.4-2.7 31-5.7 52-.7 4.8 5 8.9 8.6 9.3h.3.3c3.6-.5 9.3-4.5 8.6-9.3-2.9-20.7-4.5-37.1-5.6-51.4v-28.5c0-.1.2-10 1.3-13 1.1-2.8 2.7-4 4.5-5.2l.4-.3c3.2-2 3.2-10.9 3.2-11.3z"/></g></svg>