<svg height="20" viewBox="0 0 296 20" width="296" xmlns="http://www.w3.org/2000/svg" xmlns:xlink="http://www.w3.org/1999/xlink"><mask id="a" fill="#fff"><path d="m0 0h16.265v19.441h-16.265z" fill="#fff" fill-rule="evenodd"/></mask><g fill="#fefefe" fill-rule="evenodd"><path d="m26.883.4771v16.682l-10.681-16.682h-1.729v18.334h1.22v-16.962l10.885 16.962h1.551v-18.334z"/><path d="m39.357.4767h-6.307v18.334h5.519c3.001 0 4.933-.661 6.485-2.161 1.627-1.602 2.467-3.84 2.467-6.662 0-5.798-3.205-9.511-8.164-9.511m4.858 15.309c-1.297 1.322-2.9 1.881-5.494 1.881h-4.424v-16.096h4.526c2.289 0 4.018.636 5.264 1.907 1.373 1.373 2.162 3.712 2.162 6.382 0 2.467-.712 4.552-2.034 5.926"/><path d="m72.3555.5527-7.604 18.335h1.221l2.11-5.035h7.672l.364-1.093h-7.578l4.552-10.96 7.095 17.088h1.194l-7.577-18.335z"/><path d="m95.7753.5527-7.121 17.088-7.094-17.088h-1.196l7.578 18.335h1.449l7.603-18.335z"/><g transform="translate(98.0132 .0189)"><path d="m8.087 0c-4.755 0-8.087 4.018-8.087 9.689 0 5.645 3.382 9.714 8.087 9.714 4.679 0 8.087-4.018 8.087-9.562 0-5.798-3.332-9.841-8.087-9.841m-.102 18.284c-3.916 0-6.688-3.56-6.688-8.621 0-5.086 2.67-8.519 6.688-8.519 4.221 0 6.917 3.433 6.917 8.773 0 2.085-.966 8.367-6.917 8.367"/><path d="m28.4571 9.7897c1.221-.356 1.678-.584 2.339-1.144 1.068-.89 1.628-2.085 1.628-3.433 0-2.822-2.238-4.755-5.493-4.755h-7.451v18.334h1.247v-8.798h6.534l4.502 8.798h1.246zm-2.085-.863h-5.645v-7.426h6.204c2.415 0 4.247 1.601 4.247 3.687 0 2.263-1.907 3.739-4.806 3.739z"/></g><path d="m50.9544.4771v18.334h11.011v-1.144h-9.79v-7.451h8.087v-1.144h-8.087v-7.451h9.258l.379-1.144z"/><path d="m0 .4771v18.334h11.012v-1.144h-9.792v-7.451h8.087v-1.144h-8.087v-7.451h9.258l.381-1.144z"/><path d="m178.371.3214v11.574l-8.807-11.574h-3.814v18.797h4.082v-11.949l9.103 11.949h3.517v-18.797z"/><path d="m206.8326.3214v18.797h13.506v-3.759h-9.371v-15.038z"/><path d="m231.2406.3214-4.565 7.546-4.484-7.546h-4.834l7.224 11.386v7.411h4.135v-7.491l7.224-11.306z"/><path d="m254.761 19.119h4.135v-18.797h-4.135z"/><path d="m289.6949 7.8674c-3.249-.833-4.055-1.235-4.055-2.471v-.053c0-.913.833-1.638 2.417-1.638 1.585 0 3.222.698 4.887 1.853l2.149-3.115c-1.907-1.531-4.243-2.39-6.982-2.39-3.84 0-6.579 2.255-6.579 5.666v.053c0 3.733 2.444 4.78 6.23 5.747 3.142.805 3.786 1.342 3.786 2.39v.054c0 1.101-1.02 1.772-2.712 1.772-2.148 0-3.921-.886-5.612-2.283l-2.444 2.927c2.256 2.014 5.129 3.008 7.975 3.008 4.055 0 6.902-2.095 6.902-5.827v-.054c0-3.276-2.149-4.645-5.962-5.639"/><path d="m151.6545.1873-8.056 18.932h4.216l1.719-4.217h3.773l1.611-3.651h-3.896l2.485-6.096 5.694 13.964h4.322l-8.056-18.932z"/><path d="m192.7359.1873-8.056 18.932h4.217l1.719-4.217h3.773l1.611-3.651h-3.896l2.485-6.096 5.693 13.964h4.323l-8.056-18.932z"/><path d="m238.6251.3214-2.452 3.813h6.049v14.984h4.136v-14.984h5.719v-3.813z"/><path d="m9.774 15.628c-3.169 0-5.451-2.632-5.451-5.854v-.054-.053c0-3.223 2.282-5.855 5.451-5.855 1.872 0 3.344.8 4.789 2.107l1.702-3.859c-1.577-1.251-3.533-2.061-6.464-2.061-5.774 0-9.801 4.377-9.801 9.721s4.027 9.721 9.801 9.721c2.931 0 4.887-.809 6.464-2.06l-1.702-3.859c-1.445 1.306-2.917 2.106-4.789 2.106" mask="url(#a)" transform="translate(262.6326)"/></g></svg>