<svg height="32" viewBox="0 0 35 32" width="35" xmlns="http://www.w3.org/2000/svg"><g fill="#fff" fill-rule="evenodd" transform="translate(0 -1)"><path d="m33.541 12.737c.5395321-.853859.7555653-1.8726559.609-2.872-.1700847-.77642059-.6204769-1.46286807-1.265-1.928.7301657-1.27347068.6834039-2.84907333-.121-4.077-1.5620184-2.26364032-4.355723-3.33303708-7.03-2.691-1.2384205.25035134-2.3859933.83122153-3.321 1.681-.7784712.70487557-1.3520172 1.60700122-1.66 2.611-2.3448554-.79454072-4.8861446-.79454072-7.231 0-.3101268-1.00433924-.8816385-1.90819746-1.656-2.619-.9350067-.84977847-2.08257954-1.43064866-3.321-1.681-2.67427696-.64203708-5.46798163.42735968-7.03 2.691-.8044039 1.22792667-.85116572 2.80352932-.121 4.077-.64755063.4634096-1.09981571 1.15089528-1.269 1.929-.15157776.9994967.06482487 2.0200358.609 2.872-.80382434 1.3458226-.95105013 2.9844456-.4 4.452.40858101.9778282 1.1694775 1.7665624 2.132 2.21-.35964922 1.6665902-.37564174 3.3890191-.047 5.062.61150886 2.6910161 2.47991083 4.9237211 5.021 6 3.0676657 1.2813109 6.3780586 1.8775229 9.7 1.747 3.3219414.1305229 6.6323343-.4656891 9.7-1.747 2.5378753-1.0806154 4.4046561-3.3113831 5.021-6 .3286417-1.6729809.3126492-3.3954098-.047-5.062.9585746-.4452198 1.7156351-1.233319 2.122-2.209.5525522-1.4647835.4071335-3.1015721-.395-4.446zm-.844 3.93c-.2438375.5785233-.6659979 1.0640953-1.205 1.386-.5192365-1.8536995-1.2872209-3.6285072-2.283-5.276-.194294-.3152518-.6053584-.4166832-.924-.228-.1522842.0909643-.2619886.2389202-.3047896.4110627s-.0151617.3542471.0767896.5059373c.261.428.5.87.73 1.312.007.02.02.033.027.054s.02.04.033.06c1.607 3.234 2.27 6.735 1.7 9.26-.5328587 2.2842917-2.1291079 4.174352-4.292 5.082-2.8861936 1.1949955-5.9978143 1.7477783-9.119 1.62-3.121409.1310966-6.2337398-.4218123-9.119-1.62-2.16289207-.907648-3.75914132-2.7977083-4.292-5.082-.41885518-2.8108735.0108188-5.6827949 1.234-8.248 0-.007.007-.007.007-.013.01291163-.03456.0286308-.068005.047-.1.35038417-.798973.75119199-1.5748701 1.2-2.323.18801433-.3165172.08635348-.72539-.228-.917-.11454154-.0701001-.24800814-.1029427-.382-.094-.22181714.0134768-.42356634.1329629-.542.321-.99471808 1.6454521-1.76329301 3.4173789-2.285 5.268-.53756587-.3236181-.95926607-.8086608-1.205-1.386-.43977163-1.2158402-.24637339-2.5707523.516-3.615.14206312-.2344643.12619583-.5319761-.04-.75-.46173157-.6240433-.67842707-1.3958209-.609-2.169.17039776-.63140821.61478569-1.15322459 1.211-1.422.17222128-.09942452.2940265-.26740664.335-.462.03335411-.1956782-.02032947-.39616993-.147-.549-.72638954-.8854831-.8068666-2.13569417-.2-3.107.59008189-.90594116 1.46622743-1.58848282 2.489-1.939 1.01125715-.34206041 2.09613652-.40459645 3.14-.181 1.8772883.32612812 3.4182834 1.66756438 4 3.482-1.1263973.52507584-2.1779511 1.19763985-3.127 2l-.02.02c-.06.054-.127.107-.187.161-.02.02-.04.033-.06.054s-.06.054-.094.08-.087.08-.134.121c-.1314948.11890186-.2103322.28519744-.21914777.46225906-.00881556.17706163.0531138.35036572.17214777.48174094.04419642.04583849.09352086.08643887.147.121.007 0 .007.007.013.007l.04.02c.007 0 .013.007.02.007.01226097.00712001.02589584.01155134.04.013.007 0 .013.007.027.007s.027.007.033.013.02.007.027.007.02.007.033.007.02.007.033.007h.156c.01144308.00087062.02289581-.00155874.033-.007.007 0 .02-.007.027-.007s.02-.007.033-.007.013-.007.027-.007.027-.007.04-.013.013-.007.02-.007l.04-.02c.007 0 .007-.007.013-.007.05295895-.02710563.10233848-.06069714.147-.1.074-.067.147-.127.221-.194 2.0133977-1.85566405 4.6336441-2.91464032 7.371-2.979 2.7373559.06435968 5.3576023 1.12333595 7.371 2.979.074.06.147.127.221.194.1162825.10510303.265432.16660069.422.174h.067c.1782255-.00542196.3459292-.08564384.462-.221.119034-.13137522.1809633-.30467931.1721478-.48174094-.0088156-.17706162-.087653-.3433572-.2191478-.46225906-.04-.04-.087-.074-.127-.114s-.067-.06-.1-.087c-.0194243-.01395096-.0375028-.02968598-.054-.047-.067-.054-.127-.114-.194-.167-.007-.007-.013-.007-.02-.013-.9511799-.80243606-2.0047251-1.47498322-3.133-2 .5795622-1.81585346 2.1216043-3.15820111 4-3.482 1.0435887-.22713285 2.1294221-.16454182 3.14.181 1.0246659.35027029 1.9040111 1.03088346 2.5 1.935.5994267.97316985.51925 2.21871438-.2 3.107-.1266705.15283007-.1803541.3533218-.147.549.035876.19681276.1590849.36673074.335.462.5964383.26719981 1.0413628.78811381 1.212 1.419.0718471.775576-.1450016 1.5503918-.609 2.176-.1692888.2168767-.1852605.5163473-.04.75.7532238 1.0531142.9401901 2.4093678.5 3.627z"/><g fill-rule="nonzero"><path d="m23.887 15.04c-1.3642385.0011029-2.4698971 1.1067615-2.471 2.471-.0094844.2453609.1160066.4762538.3270554.6017542.2110487.1255004.4738405.1255004.6848892 0 .2110488-.1255004.3365398-.3563933.3270554-.6017542.0181904-.6118163.5194133-1.0983585 1.1315-1.0983585s1.1133096.4865422 1.1315 1.0983585c-.0094844.2453609.1160066.4762538.3270554.6017542.2110487.1255004.4738405.1255004.6848892 0 .2110488-.1255004.3365398-.3563933.3270554-.6017542-.001102-1.3638486-1.106152-2.469346-2.47-2.471zm-12.262 2.457c-.0129894.2442904.1081985.476241.3161469.6050975.2079484.1288564.4695965.1341324.6825704.0137635.2129739-.1203688.3434136-.3472455.3402827-.591861.016945-1.358276-1.0656708-2.4755394-2.4238067-2.5013772-1.35813595-.0258378-2.48246372 1.0494396-2.5171933 2.4073772v.094c.00708924.3647812.30515046.6566142.67.656h.013c.36919012-.0087415.66214846-.3137576.656-.683v-.047c.02587666-.6152613.53883304-1.0969752 1.1545055-1.0841883.6156724.0127868 1.1081857.5153832 1.1084945 1.1311883z"/><path d="m22.36 23.516c-.2562634.1019055-.5204916.1825118-.79.241h-.013c-1.3649234.3063829-2.7875818-.1646324-3.7-1.225v-.02c1.1806989-.0670636 2.1330589-.9908869 2.236-2.169.1000695-.7916453.0933427-1.5931458-.02-2.383-.0896614-.9430723-.4447078-1.8414367-1.024-2.591-.4871395-.5705885-1.1997493-.8991889-1.95-.8991889s-1.4628605.3286004-1.95.8991889c-.5824737.7511785-.9377972 1.6533671-1.024 2.6-.1155239.7895519-.1246049 1.5910333-.027 2.383.0671295.7171479.4563496 1.3649896 1.058 1.761.4112023.2450473.8744147.3896299 1.352.422-.9342257 1.0808597-2.3957425 1.546397-3.783 1.205-.017407-.0056758-.0357211-.0080499-.054-.007-.2250644-.0580668-.4464588-.1295274-.663-.214-.3421404-.1380712-.7314288.0273596-.8695.3695s.0273596.7314288.3695.8695c.161.067.328.121.482.174.1934778.5718225.4907864 1.1030456.877 1.567 1.1174903 1.1512846 2.6535559 1.8009875 4.258 1.8009875s3.1405097-.6497029 4.258-1.8009875c.3785712-.4517758.6713823-.9689399.864-1.526.194-.06.4-.127.6-.208.3418448-.1386432.5065957-.5281359.368-.87-.0596218-.1663449-.1847828-.3010051-.3463298-.3726148s-.3453766-.0739173-.5086702-.0063852z"/></g></g></svg>