<svg height="161" viewBox="0 0 608 161" width="608" xmlns="http://www.w3.org/2000/svg"><g fill="#fff"><path d="m147.36 0h22.22c10.33 0 16 7 16 15.31s-5.7 15.17-16 15.17h-12.1v17h-10.12zm20.87 8.69h-10.75v13.1h10.75c4 0 7-2.56 7-6.55s-3.01-6.55-7-6.55z"/><path d="m205.34 0h10.11v38.6h20.08v8.9h-30.2v-47.5z"/><path d="m256.12 0h33.62v8.69h-23.5v10.33h23v8.69h-23v11h23.5v8.76h-33.62z"/><path d="m311.18 0h25c9 0 13.68 5.77 13.68 12.11 0 6-3.7 10-8.19 10.9 5.06.78 9.12 5.7 9.12 11.68 0 7.12-4.77 12.82-13.82 12.82h-25.79zm22.82 19.09c3.42 0 5.55-2.21 5.55-5.27s-2.14-5.2-5.55-5.2h-12.71v10.47zm.36 19.8c3.85 0 6.13-2.21 6.13-5.63 0-3-2.14-5.55-6.13-5.55h-13v11.18z"/><path d="m402.2 39.35h-21.2l-3 8.19h-11.12l18.38-47.54h12.68l18.3 47.5h-11zm-18.52-8.76h15.74l-7.83-21.83z"/><path d="m444.3 15.6v31.91h-10.11v-47.51h10.4l22 30.77v-30.77h10.11v47.5h-9.76z"/><path d="m147.45 67.83h22.63c10.52 0 16.25 7.11 16.25 15.6s-5.8 15.45-16.25 15.45h-12.33v17.34h-10.3zm21.25 8.85h-11v13.35h11c4.06 0 7.11-2.61 7.11-6.67s-3.04-6.68-7.1-6.68z"/><path d="m206.48 67.83h34.24v8.85h-23.93v10.52h23.43v8.85h-23.43v11.24h23.94v8.92h-34.25z"/><path d="m273.72 76.9h-14.15v-9.07h38.59v9.07h-14.07v39.32h-10.37z"/><path d="m336.38 98.88h-7.55v17.34h-10.3v-48.39h22.63c10.08 0 16.25 6.6 16.25 15.6 0 8.56-5.37 13.13-10.59 14.36l10.88 18.43h-11.82zm3.26-22.2h-10.8v13.35h10.81c4.13 0 7.25-2.61 7.25-6.67s-3.12-6.68-7.26-6.68z"/><path d="m378.95 67.83h10.44v28.73c0 6.75 3.7 11.39 11.24 11.39s11.1-4.64 11.1-11.39v-28.73h10.44v29c0 12-6.89 20.24-21.54 20.24s-21.69-8.27-21.69-20.17v-29.07z"/><path d="m447.84 101.56c4.017226 4.189385 9.575805 6.549432 15.38 6.53 5.66 0 8.42-2.68 8.42-5.44 0-3.63-4.21-4.86-9.8-6.16-7.91-1.81-18.06-4-18.06-14.8 0-8.05 7-14.58 18.35-14.58 7.69 0 14.07 2.32 18.86 6.74l-5.73 7.5c-3.80217-3.4177955-8.7375-5.3028418-13.85-5.29-4.64 0-7.11 2-7.11 4.93 0 3.26 4.06 4.28 9.65 5.59 8 1.81 18.13 4.21 18.13 14.94 0 8.85-6.31 15.53-19.37 15.53-9.29 0-16-3.12-20.46-7.69z"/><path d="m516.89 96.85-3.77 4.5v14.87h-10.3v-48.39h10.3v21.62l17.12-21.62h12.69l-19.22 22.71 20.53 25.68h-12.7z"/><path d="m593.55 107.87h-21.62l-3 8.34h-11.36l18.72-48.39h12.91l18.64 48.39h-11.24zm-18.86-8.92h16l-8-22.2z"/><path d="m82.07 52.86h-17.47v-17.46h-10.29v17.46h-17.47v10.29h17.47v17.47h10.29v-17.47h17.47z"/><path d="m0 115.42h11.77v-60.29-43.63h52.4v-11.15h-64.17z"/><path d="m107.9 103.66-53.16-.01v56.95h11.77v-45.18h53.16v-62.06h-11.77z"/><path d="m166.91 153.35-.09 7.16h-19.61v-1.76h.32c.751741.106171 1.513546-.10786 2.1-.59.368976-.598509.537148-1.299222.48-2v-12.81c.070204-.721606-.109864-1.445406-.51-2.05-.585794-.467789-1.336671-.677168-2.08-.58h-.32v-1.76h11.54v1.76h-.43c-.751741-.106171-1.513546.10786-2.1.59-.369632.598236-.537855 1.299167-.48 2v12.34c-.030528.611136.023312 1.223564.16 1.82.166333.354598.463941.630692.83.77.756033.269373 1.559076.381663 2.36.33 1.54159.123064 3.0664-.390024 4.22-1.42.985417-1.057712 1.64508-2.377039 1.9-3.8z"/><path d="m175.61 154.68-.41 1.06c-.228849.500249-.377341 1.033471-.44 1.58-.044381.432029.156286.852658.52 1.09.535387.243815 1.123096.350359 1.71.31v1.76h-7.11v-1.76c1.333333 0 2.47-1.153333 3.41-3.46l6.62-16.68h1.86l6.74 16.66c.32566 1.143233.950487 2.178858 1.81 3 .460676.306406.997112.47945 1.55.5v1.76h-10.68v-1.76c.610877.06445 1.227985-.032081 1.79-.28.223813-.166813.353991-.430889.35-.71-.026289-.349834-.125047-.690378-.29-1l-.21-.49-.62-1.57h-6.62zm.68-1.82h5.22l-2.68-6.43z"/><path d="m198.84 160.93-5.24-17c-.203642-.982937-.616306-1.910579-1.21-2.72-.475513-.332015-1.052005-.487633-1.63-.44v-1.76h9.81v1.76c-1.173333 0-1.76.36-1.76 1.08.012823.496144.09702.987856.25 1.46l3 9.6 4.54-13.9h2.46l5.44 13.9 2.41-8.73c.151295-.504097.241935-1.024437.27-1.55 0-1.24-.703333-1.86-2.11-1.86v-1.76h6.93v1.76c-.627975-.004866-1.232209.239705-1.68.68-.473333.446667-1.03 1.803333-1.67 4.07l-4.32 15.45h-2.48l-5.62-14.44-4.82 14.44h-2.56z"/><path d="m251.73 153.35-.09 7.16h-19.64v-1.76h.32c.751741.106171 1.513546-.10786 2.1-.59.368976-.598509.537148-1.299222.48-2v-12.81c.070204-.721606-.109864-1.445406-.51-2.05-.585794-.467789-1.336671-.677168-2.08-.58h-.31v-1.76h11.54v1.76h-.43c-.751741-.106171-1.513546.10786-2.1.59-.369632.598236-.537855 1.299167-.48 2v12.34c-.030528.611136.023312 1.223564.16 1.82.166333.354598.463941.630692.83.77.756033.269373 1.559076.381663 2.36.33 1.54159.123064 3.0664-.390024 4.22-1.42.985417-1.057712 1.64508-2.377039 1.9-3.8h1.71z"/><path d="m255.29 158.19c-.022706-1.382499.937019-2.587401 2.289573-2.874482 1.352555-.28708 2.718969.424098 3.259794 1.696626.540824 1.272529.104526 2.749859-1.040857 3.524402s-2.678928.629281-3.65851-.346546c-.542958-.523725-.849763-1.245619-.85-2z"/><path d="m284.84 153.35-.09 7.16h-19.62v-1.76h.32c.751741.106171 1.513546-.10786 2.1-.59.368976-.598509.537148-1.299222.48-2v-12.81c.070204-.721606-.109864-1.445406-.51-2.05-.585794-.467789-1.336671-.677168-2.08-.58h-.32v-1.76h11.54v1.76h-.43c-.751741-.106171-1.513546.10786-2.1.59-.369632.598236-.537855 1.299167-.48 2v12.34c-.030528.611136.023312 1.223564.16 1.82.166333.354598.463941.630692.83.77.756033.269373 1.559076.381663 2.36.33 1.54159.123064 3.0664-.390024 4.22-1.42.99076-1.059236 1.654071-2.382384 1.91-3.81h1.71z"/><path d="m288.4 158.19c-.022706-1.382499.937019-2.587401 2.289573-2.874482 1.352555-.28708 2.718969.424098 3.259794 1.696626.540824 1.272529.104526 2.749859-1.040857 3.524402s-2.678928.629281-3.65851-.346546c-.542958-.523725-.849763-1.245619-.85-2z"/><path d="m317.82 152.22v8.08h-1.76c-.150135-.742842-.456958-1.445127-.9-2.06-1.886045 1.838839-4.448455 2.816029-7.08 2.7-3.016404.131505-5.939357-1.063252-8-3.27-1.969131-2.099342-3.044913-4.882032-3-7.76-.009719-2.904438 1.059373-5.709023 3-7.87 2.067732-2.334341 5.08569-3.600411 8.2-3.44 2.472502-.053153 4.864757.878567 6.65 2.59.273124-.621524.497143-1.263487.67-1.92h1.75l.22 7.95h-1.75c-.353432-1.844323-1.240022-3.54449-2.55-4.89-1.125648-1.086578-2.635651-1.683388-4.2-1.66-1.696836-.088375-3.308272.749878-4.21 2.19-.94 1.46-1.41 3.74-1.41 6.84-.046199 1.741161.125125 3.48128.51 5.18.283908 1.191955.995615 2.238165 2 2.94.963339.665074 2.109472 1.014505 3.28 1 1.553684.002222 3.050632-.583695 4.19-1.64 1.37437-1.356076 2.299363-3.101345 2.65-5h1.76z"/><path d="m322.67 158.19c-.022706-1.382499.937019-2.587401 2.289573-2.874482 1.352555-.28708 2.718969.424098 3.259794 1.696626.540824 1.272529.104526 2.749859-1.040857 3.524402s-2.678928.629281-3.65851-.346546c-.542958-.523725-.849763-1.245619-.85-2z"/></g></svg>