<?xml version="1.0" encoding="utf-8"?>
<!-- Generator: Adobe Illustrator 25.2.1, SVG Export Plug-In . SVG Version: 6.00 Build 0)  -->
<svg version="1.1" id="Layer_1" xmlns="http://www.w3.org/2000/svg" xmlns:xlink="http://www.w3.org/1999/xlink" x="0px" y="0px"
	 viewBox="0 0 576 341.9" style="enable-background:new 0 0 576 341.9;" xml:space="preserve">
<style type="text/css">
	.st0{fill:#FFFFFF;}
	.st1{fill:#4BADCF;}
	.st2{clip-path:url(#SVGID_2_);fill:#CC2427;}
	.st3{clip-path:url(#SVGID_4_);fill:#FFFFFF;}
	.st4{clip-path:url(#SVGID_6_);fill:#FFFFFF;}
	.st5{clip-path:url(#SVGID_8_);fill:#FFFFFF;}
</style>
<g>
	<g>
		<path class="st0" d="M78.8,153.7c3.5,1.7,7,2.5,10.5,2.5c2.4,0,4.3-0.5,5.7-1.4c1.3-0.9,2-2.2,2-3.9c0-1.2-0.4-2.2-1.2-3
			c-0.8-0.8-2.1-1.4-4-2l-3.1-1c-3.2-1-5.6-2.4-7.1-4.1c-1.5-1.7-2.3-3.8-2.3-6.3c0-3.3,1.2-5.9,3.7-7.8c2.5-1.9,5.8-2.9,10.1-2.9
			c3.5,0,6.8,0.7,10,2.2v5.5c-3.3-1.3-6.3-2-9.2-2c-2.3,0-4,0.4-5.2,1.2c-1.2,0.8-1.8,1.9-1.8,3.4c0,1,0.3,1.9,1,2.5
			c0.7,0.6,1.8,1.2,3.6,1.7l3.2,1c3.5,1.1,6,2.6,7.6,4.4c1.6,1.8,2.4,4.1,2.4,6.9c0,3.6-1.3,6.3-3.8,8.3c-2.5,1.9-6.1,2.9-10.7,2.9
			c-4,0-7.5-0.7-10.5-2.2L78.8,153.7z"/>
		<path class="st0" d="M142.9,161.2L127.7,137v24.2h-6.9v-36.6h6.6l15.2,24.2v-24.2h6.9v36.6H142.9z"/>
		<path class="st0" d="M190.1,161.2l-2.5-7.9h-13.5l-2.5,7.9h-7.4l12.4-36.6h8.6l12.3,36.6H190.1z M175.8,147.9h10.1l-5.1-16.3
			L175.8,147.9z"/>
		<path class="st0" d="M236.3,159.6c-3.1,1.6-6.5,2.4-10.2,2.4c-5.1,0-9.1-1.7-11.9-5c-2.8-3.3-4.2-8-4.2-14.2
			c0-6,1.4-10.7,4.2-14.1c2.8-3.4,6.8-5,11.9-5c3.6,0,6.9,0.8,10,2.4v5.8c-1.7-0.8-3.2-1.4-4.4-1.7c-1.3-0.3-2.7-0.5-4.3-0.5
			c-3.1,0-5.4,1.1-7,3.3c-1.6,2.2-2.4,5.5-2.4,9.8c0,8.7,3.1,13.1,9.4,13.1c1.5,0,2.9-0.2,4.3-0.5c1.4-0.3,2.9-0.9,4.6-1.7V159.6z"
			/>
		<path class="st0" d="M252.9,161.2v-36.6h7.4v14.7l12.8-14.7h8.9l-15.2,17.1l15.6,19.4h-9.3l-12.8-16.3v16.3H252.9z"/>
		<path class="st0" d="M294.8,150.7v-5.7h14.4v5.7H294.8z"/>
		<path class="st0" d="M323,153.7c3.5,1.7,7,2.5,10.5,2.5c2.4,0,4.3-0.5,5.7-1.4c1.3-0.9,2-2.2,2-3.9c0-1.2-0.4-2.2-1.2-3
			s-2.1-1.4-4-2l-3.1-1c-3.2-1-5.6-2.4-7.1-4.1c-1.5-1.7-2.3-3.8-2.3-6.3c0-3.3,1.2-5.9,3.7-7.8c2.5-1.9,5.8-2.9,10.1-2.9
			c3.5,0,6.8,0.7,10,2.2v5.5c-3.3-1.3-6.3-2-9.2-2c-2.3,0-4,0.4-5.2,1.2c-1.2,0.8-1.8,1.9-1.8,3.4c0,1,0.3,1.9,1,2.5
			c0.7,0.6,1.8,1.2,3.6,1.7l3.2,1c3.5,1.1,6,2.6,7.6,4.4c1.6,1.8,2.4,4.1,2.4,6.9c0,3.6-1.3,6.3-3.8,8.3c-2.5,1.9-6.1,2.9-10.7,2.9
			c-4,0-7.5-0.7-10.5-2.2L323,153.7z"/>
		<path class="st0" d="M365,161.2v-36.6h7.4v36.6H365z"/>
		<path class="st0" d="M389.6,161.2v-5.5l17.5-25.1h-16.6v-5.9h24.9v5.5l-17.5,25.1h17.6v5.9H389.6z"/>
		<path class="st0" d="M440.1,145.7v9.6h16.3v5.9h-23.7v-36.6h23.6v5.9h-16.1v9.3h14v5.9H440.1z"/>
		<path class="st0" d="M472.4,161.2v-35.8c4-0.8,7.8-1.1,11.2-1.1c6,0,10.5,1.6,13.6,4.7c3.1,3.1,4.6,7.7,4.6,13.7
			c0,6.1-1.5,10.7-4.6,13.9c-3.1,3.2-7.6,4.7-13.5,4.7H472.4z M483.7,155.3c3.6,0,6.1-1,7.8-3c1.6-2,2.5-5.2,2.5-9.6
			c0-4.4-0.8-7.6-2.4-9.6c-1.6-2-4.2-3-7.7-3c-1.5,0-2.9,0.1-4,0.3v24.9H483.7z"/>
	</g>
</g>
<circle class="st1" cx="293.3" cy="45.4" r="44.6"/>
<g>
	<g>
		<path class="st0" d="M-0.3,230.4c4.9,2.1,9.5,3.2,13.9,3.2c4.2,0,7.4-0.9,9.6-2.8c2.3-1.8,3.4-4.5,3.4-7.9c0-2.6-0.7-4.7-2.2-6.3
			c-1.5-1.6-4-2.9-7.5-4l-5-1.5c-3.8-1.2-6.6-2.7-8.4-4.6c-1.8-1.9-2.7-4.3-2.7-7.2c0-4,1.5-7.2,4.5-9.6c3-2.4,7-3.6,12.1-3.6
			c4.1,0,8,0.9,11.8,2.6v3.5c-4-1.7-7.9-2.5-11.6-2.5c-3.8,0-6.8,0.8-9,2.5c-2.1,1.7-3.2,4-3.2,7c0,2.1,0.6,3.8,1.8,5
			c1.2,1.2,3.3,2.3,6.4,3.3l5,1.6c4.5,1.4,7.7,3.3,9.7,5.4c2,2.2,2.9,5,2.9,8.4c0,4.4-1.6,7.9-4.7,10.5c-3.1,2.6-7.3,3.9-12.7,3.9
			c-4.9,0-9.4-1-13.4-3L-0.3,230.4z"/>
		<path class="st0" d="M72.6,237.2c-6.4,0-11.4-2.2-14.8-6.7c-3.5-4.4-5.2-10.7-5.2-18.9c0-8.2,1.7-14.5,5.2-18.9
			c3.5-4.4,8.4-6.7,14.8-6.7c6.4,0,11.4,2.2,14.8,6.7c3.5,4.4,5.2,10.7,5.2,18.9c0,8.2-1.7,14.5-5.2,18.9
			C84,235,79.1,237.2,72.6,237.2z M72.6,233.7c10.3,0,15.4-7.3,15.4-22c0-14.7-5.1-22-15.4-22c-10.3,0-15.4,7.3-15.4,22
			C57.2,226.3,62.4,233.7,72.6,233.7z"/>
		<path class="st0" d="M147.3,187.1h4.3v32.7c0,5.7-1.5,10-4.4,12.9c-2.9,3-7.1,4.4-12.6,4.4c-5.5,0-9.7-1.5-12.6-4.4
			c-2.9-3-4.4-7.3-4.4-12.9v-32.7h4.4v32.8c0,9.1,4.2,13.7,12.6,13.7c4.2,0,7.4-1.1,9.5-3.4c2.1-2.2,3.2-5.7,3.2-10.3V187.1z"/>
		<path class="st0" d="M188,236.2v-45.5h-14.8v-3.6h34v3.6h-14.8v45.5H188z"/>
		<path class="st0" d="M229.2,236.2v-49h4.4v22h25.8v-22h4.4v49h-4.4v-23.5h-25.8v23.5H229.2z"/>
		<path class="st0" d="M323.2,236.2v-48c5.3-1,10-1.5,14-1.5c5.1,0,9.1,1.1,11.9,3.2c2.8,2.1,4.2,5.2,4.2,9.1c0,2.8-0.8,5.2-2.3,7.2
			c-1.5,2-3.7,3.4-6.6,4.3c2.3,0.4,4.3,1.2,6,2.3c1.6,1.1,2.9,2.5,3.7,4.3c0.9,1.7,1.3,3.7,1.3,5.9c0,4.3-1.4,7.5-4.3,9.8
			c-2.9,2.3-7,3.4-12.4,3.4H323.2z M336.7,190.2c-2.6,0-5.7,0.3-9.2,0.8v18.1H338c3.4,0,6-0.9,8-2.6c2-1.8,2.9-4.1,2.9-7.2
			C349,193.3,344.9,190.2,336.7,190.2z M338.6,232.7c8.3,0,12.4-3.3,12.4-9.9c0-3.2-1.1-5.7-3.3-7.5c-2.2-1.8-5.3-2.7-9.4-2.7h-10.8
			v20.1H338.6z"/>
		<path class="st0" d="M383.7,213v19.6h23.9v3.6h-28.3v-49h28.2v3.6h-23.8v18.7h20.8v3.6H383.7z"/>
		<path class="st0" d="M459.9,236.2l-4.6-13.2h-21.9l-4.5,13.2h-4.6l17.4-49h5.1l17.4,49H459.9z M434.6,219.6h19.5l-9.9-28.3
			L434.6,219.6z"/>
		<path class="st0" d="M514.7,234.2c-4,2-8.2,3-12.6,3c-6.2,0-11.1-2.3-14.6-6.8c-3.5-4.5-5.3-10.8-5.3-18.8c0-8,1.8-14.3,5.3-18.8
			c3.5-4.5,8.4-6.8,14.6-6.8c4.2,0,8.4,1,12.4,3v3.6c-2.1-1-4.2-1.8-6-2.2c-1.9-0.5-3.8-0.7-5.8-0.7c-5.2,0-9.1,1.9-11.7,5.6
			c-2.6,3.7-4,9.2-4,16.4c0,7.2,1.3,12.6,4,16.4c2.6,3.7,6.5,5.6,11.7,5.6c4,0,8-1,12-2.9V234.2z"/>
		<path class="st0" d="M539.3,236.2v-49h4.4v22h25.8v-22h4.4v49h-4.4v-23.5h-25.8v23.5H539.3z"/>
	</g>
</g>
<g>
	<g>
		<defs>
			<rect id="SVGID_1_" x="255.2" y="268.2" width="204.9" height="73.5"/>
		</defs>
		<clipPath id="SVGID_2_">
			<use xlink:href="#SVGID_1_"  style="overflow:visible;"/>
		</clipPath>
		<path class="st2" d="M424.6,307.3C424.6,307.3,424.6,307.3,424.6,307.3c6.5-4.2,13.6-9.4,18-13.5c2.7-2.4,9.5-7.9,11.1-13
			c1.1-3.6-2-6.5-5.2-8.2c-6.7-3.6-18.4-4.4-30.2-4.4c-28.5,0-68.8,5.7-106.6,13.5l-0.9,0.2c-0.2,0-0.3,0.2-0.3,0.4
			c0,0.2,0.2,0.3,0.4,0.3l0.9-0.2c31.2-5.5,96-13.2,109.9,0.6c4.4,4.4,3.2,10.1-2.3,16.8C422,301.4,423.9,304,424.6,307.3
			L424.6,307.3z M364.4,341.4C364.4,341.4,364.4,341.4,364.4,341.4l-0.4,0.2c-0.1,0.1-0.4,0.1-0.5-0.1c-0.1-0.2-0.1-0.4,0.1-0.5
			l0.4-0.3c11.1-6.8,21.4-13.3,30.2-19.5c0.3-0.2,0.6-0.4,0.8-0.6c0.3,1.2,0.8,2.4,1.5,3.4c0,0,0,0-0.1,0c-0.1,0-0.1,0.1-0.2,0.1
			c-0.3,0.1-6.2,3.4-6.2,3.4c-7.6,4.1-15,8.1-21.8,11.7c0,0,0,0,0,0C366.9,340.1,365.7,340.8,364.4,341.4L364.4,341.4z"/>
	</g>
	<path class="st0" d="M306.1,309.1c0,0.8-0.2,1.6-0.4,2.8l-1.5,8.6c-0.1,0.8,0.2,1.4,0.9,1.8l0,0.3l-8.7,0l-0.1-2.2
		c-1.3,0.8-2.8,1.4-4.2,1.8c-1.4,0.4-2.5,0.5-4.2,0.5c-2.8,0-4.4-0.3-5.5-1.3c-1.1-1-1.7-1.7-1.6-3.1c0-0.8,0.5-1.8,1.1-2.5
		c0.6-0.7,1.4-1.2,2.3-1.6c0.9-0.4,2-0.7,3.5-1c1.5-0.3,3.7-0.5,6.6-0.7c1.5-0.1,2.4-0.5,2.9-0.6c0.6-0.2,0.8-0.5,0.9-1
		c0.2-0.9-0.1-1.4-1.3-1.6c-3.1-0.6-9,0.4-12.1,1.2l1.7-4.5c4-0.6,7.8-1,11.7-1C304.2,305,306.2,306.8,306.1,309.1L306.1,309.1z
		 M297.1,314.7c-0.4,0.1-0.8,0.3-1.4,0.4c-0.6,0.1-1.7,0.3-3.2,0.6c-1.1,0.2-1.8,0.4-2.3,0.7c-0.4,0.3-0.6,0.7-0.7,1.1
		c-0.1,0.5,0.1,0.8,0.5,1.1c0.4,0.3,1.1,0.4,2.1,0.4c0.7,0,1.5-0.1,2.2-0.3c0.7-0.2,1.3-0.5,1.8-0.9c0.3-0.3,0.6-0.7,0.8-1.1
		C296.8,316.4,296.9,315.7,297.1,314.7L297.1,314.7z"/>
	<path class="st0" d="M334.9,301.5c0.2-1.4,2.5-2.5,4.9-2.5c2.5,0,4.3,1.1,4.1,2.5c-0.3,1.4-2.5,2.5-5,2.5
		C336.5,304.1,334.7,302.9,334.9,301.5L334.9,301.5z M331.4,322.6l3-17.1h8.4l-3,17.1H331.4L331.4,322.6z"/>
	<g>
		<defs>
			<rect id="SVGID_3_" x="255.2" y="268.2" width="204.9" height="73.5"/>
		</defs>
		<clipPath id="SVGID_4_">
			<use xlink:href="#SVGID_3_"  style="overflow:visible;"/>
		</clipPath>
		<path class="st3" d="M381.5,309.1c0,0.8-0.2,1.6-0.4,2.8l-1.5,8.6c-0.1,0.8,0.1,1.3,0.8,1.8l-0.1,0.3l-8.7,0l-0.1-2.2
			c-1.3,0.8-2.8,1.4-4.2,1.8c-1.4,0.4-2.5,0.5-4.2,0.5c-2.8,0-4.4-0.3-5.5-1.3c-1.1-1-1.7-1.7-1.6-3.1c0-0.8,0.4-1.8,1.1-2.5
			c0.6-0.7,1.4-1.2,2.3-1.6c0.9-0.4,2-0.7,3.5-1c1.6-0.2,3.7-0.5,6.6-0.7c1.5-0.1,2.4-0.5,2.9-0.6c0.6-0.2,0.8-0.5,0.9-1
			c0.2-0.9-0.1-1.4-1.3-1.6c-3.2-0.6-9,0.4-12.1,1.2l1.6-4.5c4-0.6,7.8-1,11.7-1C379.5,305,381.5,306.8,381.5,309.1L381.5,309.1z
			 M372.5,314.7c-0.4,0.1-0.9,0.3-1.4,0.4c-0.6,0.1-1.7,0.3-3.2,0.6c-1.1,0.2-1.8,0.4-2.2,0.7c-0.4,0.3-0.6,0.7-0.7,1.1
			c-0.1,0.5,0.1,0.9,0.5,1.1c0.4,0.3,1.1,0.4,2.1,0.4c0.7,0,1.4-0.1,2.1-0.3c0.7-0.2,1.3-0.5,1.8-0.9c0.3-0.3,0.6-0.7,0.7-1.1
			C372.2,316.4,372.3,315.8,372.5,314.7L372.5,314.7z"/>
		<path class="st3" d="M279.5,316.4c-2.7,0.5-4.3,0.7-6.9,0.7c-4,0-7.2-2-7-5.6c0.1-2.4,3-7.5,10.3-7.5c2.3,0,4.1,0.4,6.5,1.8
			l1.1-5.9c-3.3-1.2-5.4-1.4-8.3-1.4c-9.5,0.1-18.7,4.4-19.9,13.3c-1.2,9,9.8,11.2,14.7,11.2c2.8,0,5.7-0.1,8.5-0.4L279.5,316.4
			L279.5,316.4z"/>
	</g>
	<path class="st0" d="M347.4,305.4l0.6-3.5l8.7-1.9l-0.9,5.4h4.3l-0.8,3.4l-4.2,0l-2.5,13.7c0,0-8.4-0.1-8.4,0l2.5-13.7h-3.2
		l0.6-3.5H347.4L347.4,305.4z"/>
	<polygon class="st0" points="390,322.6 381.5,322.6 385.8,298.7 394,299 390,322.6 	"/>
	<g>
		<defs>
			<rect id="SVGID_5_" x="255.2" y="268.2" width="204.9" height="73.5"/>
		</defs>
		<clipPath id="SVGID_6_">
			<use xlink:href="#SVGID_5_"  style="overflow:visible;"/>
		</clipPath>
		<path class="st4" d="M305.2,328.5l4.1-22.9h7.3l-0.6,2.9c0.6-0.9,1.7-1.6,3.1-2.2c1.4-0.6,3-1,4.7-1c1.9,0,3.1,0.1,4.5,0.8
			c1.4,0.7,2.4,1.8,3,3.2c0.5,1.4,0.7,3,0.4,4.7c-0.5,2.8-1.9,5.1-4.1,6.7c-2.2,1.6-4.3,2.1-7.1,2.1c-1,0-1.9-0.1-2.6-0.3
			c-0.7-0.2-1.2-0.4-1.7-0.7c-0.4-0.3-0.8-0.6-1.4-1.2l-1.4,7.9H305.2L305.2,328.5z M320.4,309.5c-1.1,0-2.1,0.3-3,1
			c-0.9,0.7-1.4,1.6-1.7,2.9c-0.3,1.5-0.1,2.6,0.5,3.2c0.6,0.7,1.5,1,2.6,1c0.8,0,1.5-0.1,2.1-0.4c0.7-0.4,1.2-0.8,1.6-1.4
			c0.5-0.7,0.8-1.4,0.9-2.3c0.2-1.3,0-2.4-0.6-3C322.3,309.8,321.5,309.5,320.4,309.5L320.4,309.5z"/>
		<path class="st4" d="M457.6,322.1l0.7,0.4c-1.7,3.4-5.1,6.1-9.1,6.1c-3.3,0-6-2.2-6.1-6.3c-0.3-7.3,6.6-14.1,12.2-14.1
			c2.4,0,4.6,1.1,4.7,3.7c0.2,5.8-8,7.6-13.4,7.7c-0.2,0.6-0.2,1.2-0.2,2.2c0.1,2.4,1.6,4.4,4.6,4.4
			C453.7,326.3,456.3,324.2,457.6,322.1L457.6,322.1z M456.9,311.6c0-1.4-0.7-2.3-2.2-2.3c-3.4,0-7.1,6.7-7.7,9.4
			C452.6,318.7,457,315.4,456.9,311.6L456.9,311.6z"/>
	</g>
	<path class="st0" d="M395.3,317.1c-0.3-9.1,6.8-18.4,17.2-18.4c6.9,0,11.5,4.6,11.7,11.7c0.3,9.6-6.3,18.4-17.2,18.4
		C400.1,328.8,395.6,324.2,395.3,317.1L395.3,317.1z M399.8,317.4c0.2,5.3,3.6,9.7,8,9.7c8.5,0,12.2-10.5,11.9-17.5
		c-0.2-5.4-3.6-9.7-8-9.7C404.3,299.9,399.6,310.3,399.8,317.4L399.8,317.4z"/>
	<path class="st0" d="M424.1,310.3l0,1.1l0.3,0c0.6-0.1,1.1-0.1,1.5-0.1c0.6,0,1.2,0.1,1.2,0.7c0,0.4-0.6,3-0.8,3.6l-1.3,5.7
		c-0.5,2.4-1.1,4.8-1.6,6.8h3.3l1.9-9.1c5.7-6,8-7.9,9.3-7.9c0.6,0,1,0.3,1.1,1c0,1.1-0.6,3.4-0.8,4.1l-1.9,6.6
		c-0.4,1.5-0.8,2.8-0.7,3.8c0.1,1.5,0.9,2.1,2.2,2.1c2.4,0,4.2-2.6,5.8-5.1l-0.5-0.8l-0.2,0.3c-0.6,1-1.9,2.9-3,2.9
		c-0.4,0-0.7-0.2-0.7-0.8c0-0.8,0.3-1.9,0.5-2.7l2.1-7.8c0.6-2.1,0.8-3.5,0.8-4.3c-0.1-1.5-0.9-2.1-2.2-2.1c-2.2,0-5.1,1.6-11.3,8.7
		h-0.1l0.8-3.5c0.4-1.9,0.8-3.9,1.2-5.3c-2.1,0.8-4.8,1.6-6.7,1.9L424.1,310.3L424.1,310.3z"/>
</g>
<g>
	<path class="st0" d="M122.5,317.7V304c0.6-0.1,1.2-0.2,2-0.3c0.7-0.1,1.3-0.1,1.8-0.1c1.5,0,2.8,0.4,3.7,1.1
		c0.9,0.8,1.3,1.8,1.3,3.1s-0.5,2.4-1.4,3.1c-0.9,0.8-2.2,1.1-3.8,1.1h-2.3v5.6H122.5z M126.1,304.6c-0.7,0-1.5,0.1-2.4,0.2v6.3h2.3
		c1.3,0,2.2-0.3,2.9-0.9c0.7-0.6,1-1.4,1-2.4c0-1.1-0.3-1.9-1-2.4S127.4,304.6,126.1,304.6z"/>
	<path class="st0" d="M133.3,317.7v-10l1-0.1l0.1,0.9c0.9-0.7,1.8-1.1,2.9-1.1c0.4,0,0.6,0,0.9,0.1v1c-0.3-0.1-0.7-0.1-0.9-0.1
		c-0.9,0-1.9,0.3-2.7,1v8.3H133.3z"/>
	<path class="st0" d="M147.1,317.3c-0.9,0.4-1.9,0.7-3,0.7c-1.5,0-2.7-0.5-3.5-1.4c-0.8-0.9-1.2-2.2-1.2-3.9c0-1.7,0.4-3,1.2-4
		c0.8-1,1.8-1.4,3.2-1.4c1.2,0,2.1,0.4,2.8,1.1c0.7,0.7,1,1.8,1,3c0,0.5,0,0.9-0.1,1.4h-6.9c0,2.8,1.2,4.2,3.7,4.2
		c1,0,1.9-0.2,2.9-0.6V317.3z M143.7,308.3c-0.9,0-1.6,0.3-2.2,1s-0.9,1.6-0.9,2.7h5.8c0-0.2,0-0.4,0-0.6c0-1-0.2-1.8-0.7-2.3
		C145.2,308.5,144.5,308.3,143.7,308.3z"/>
	<path class="st0" d="M149.4,316.4c1,0.4,2,0.7,3.1,0.7c1.8,0,2.7-0.7,2.7-2.1c0-0.5-0.1-0.8-0.4-1.1c-0.3-0.3-0.7-0.5-1.3-0.7
		l-1.5-0.5c-0.9-0.3-1.5-0.6-1.9-1s-0.6-0.9-0.6-1.6c0-0.8,0.3-1.5,1-2c0.7-0.5,1.6-0.8,2.7-0.8c0.9,0,1.8,0.2,2.7,0.5v0.9
		c-0.9-0.3-1.8-0.5-2.6-0.5c-0.8,0-1.4,0.2-1.9,0.5c-0.4,0.3-0.7,0.7-0.7,1.3c0,0.4,0.1,0.7,0.4,0.9c0.2,0.2,0.7,0.5,1.3,0.7
		l1.6,0.5c0.8,0.3,1.4,0.6,1.8,1.1c0.4,0.4,0.6,1,0.6,1.7c0,1-0.3,1.7-1,2.3s-1.6,0.8-2.8,0.8c-1.1,0-2.1-0.2-3-0.6L149.4,316.4z"/>
	<path class="st0" d="M166.1,317.3c-0.9,0.4-1.9,0.7-3,0.7c-1.5,0-2.7-0.5-3.5-1.4s-1.2-2.2-1.2-3.9c0-1.7,0.4-3,1.2-4
		c0.8-1,1.8-1.4,3.2-1.4c1.2,0,2.1,0.4,2.8,1.1c0.7,0.7,1,1.8,1,3c0,0.5,0,0.9-0.1,1.4h-6.9c0,2.8,1.2,4.2,3.7,4.2
		c1,0,1.9-0.2,2.9-0.6V317.3z M162.7,308.3c-0.9,0-1.6,0.3-2.2,1c-0.6,0.7-0.9,1.6-0.9,2.7h5.8c0-0.2,0-0.4,0-0.6
		c0-1-0.2-1.8-0.7-2.3C164.2,308.5,163.5,308.3,162.7,308.3z"/>
	<path class="st0" d="M175.9,317.7v-6.9c0-1.6-0.8-2.5-2.5-2.5c-0.4,0-0.9,0.1-1.5,0.2c-0.5,0.1-1,0.3-1.6,0.6v8.6h-1.2v-10l1-0.1
		l0.1,0.7c1.2-0.6,2.3-1,3.4-1c1.1,0,1.9,0.3,2.5,0.8c0.6,0.6,0.9,1.4,0.9,2.4v7.1H175.9z"/>
	<path class="st0" d="M181.8,308.5v6.4c0,0.7,0.1,1.2,0.4,1.5c0.3,0.3,0.7,0.5,1.4,0.5c0.4,0,0.9-0.1,1.4-0.2v0.9
		c-0.6,0.2-1.1,0.3-1.5,0.3c-0.9,0-1.6-0.3-2.1-0.8c-0.5-0.5-0.7-1.2-0.7-2.2v-6.4h-1.5v-0.9l1.6-0.1l0.1-2.5l1-0.1v2.6h3v0.9H181.8
		z"/>
	<path class="st0" d="M194.1,317.3c-0.9,0.4-1.9,0.7-3,0.7c-1.5,0-2.7-0.5-3.5-1.4c-0.8-0.9-1.2-2.2-1.2-3.9c0-1.7,0.4-3,1.2-4
		c0.8-1,1.8-1.4,3.2-1.4c1.2,0,2.1,0.4,2.8,1.1c0.7,0.7,1,1.8,1,3c0,0.5,0,0.9-0.1,1.4h-6.9c0,2.8,1.2,4.2,3.7,4.2
		c1,0,1.9-0.2,2.9-0.6V317.3z M190.7,308.3c-0.9,0-1.6,0.3-2.2,1c-0.6,0.7-0.9,1.6-0.9,2.7h5.8c0-0.2,0-0.4,0-0.6
		c0-1-0.2-1.8-0.7-2.3C192.3,308.5,191.6,308.3,190.7,308.3z"/>
	<path class="st0" d="M205,302.5v15.1l-1,0.1l-0.1-0.7c-1.1,0.6-2.2,1-3.1,1c-1.3,0-2.3-0.5-3.1-1.4c-0.7-0.9-1.1-2.2-1.1-3.8
		c0-1.8,0.4-3.1,1.3-4.1c0.8-0.9,2.1-1.4,3.7-1.4c0.8,0,1.6,0.1,2.3,0.3v-5L205,302.5z M201,317c0.4,0,0.9-0.1,1.4-0.2
		c0.5-0.1,1-0.3,1.4-0.6v-7.6c-0.7-0.2-1.4-0.3-2.2-0.3c-1.3,0-2.2,0.4-2.9,1.1c-0.6,0.7-0.9,1.9-0.9,3.4c0,1.4,0.3,2.4,0.8,3.1
		C199.2,316.7,199.9,317,201,317z"/>
	<path class="st0" d="M214.6,308.2c0.5-0.3,1-0.5,1.6-0.7c0.5-0.2,1-0.2,1.5-0.2c1.3,0,2.3,0.5,3.1,1.4c0.7,0.9,1.1,2.2,1.1,3.8
		c0,1.8-0.4,3.1-1.3,4.1c-0.8,0.9-2.1,1.4-3.7,1.4c-1.1,0-2.3-0.2-3.5-0.6v-14.8l1.2-0.2V308.2z M217.5,308.3
		c-0.4,0-0.9,0.1-1.4,0.2c-0.5,0.1-1,0.3-1.4,0.6v7.6c0.7,0.2,1.4,0.3,2.2,0.3c1.3,0,2.2-0.4,2.9-1.1c0.6-0.7,0.9-1.9,0.9-3.4
		c0-1.4-0.3-2.4-0.8-3.1C219.2,308.6,218.5,308.3,217.5,308.3z"/>
	<path class="st0" d="M222.9,321.1c0.9-0.2,1.7-0.5,2.2-1c0.5-0.5,1-1.3,1.5-2.4l-3.8-10.2h1.3l3.1,8.8l3.2-8.8h1.2l-3.8,10
		c-0.4,1-0.7,1.7-1.1,2.4c-0.4,0.6-0.9,1.1-1.4,1.4c-0.5,0.4-1.2,0.6-2.1,0.8L222.9,321.1z"/>
</g>
<g>
	<defs>
		<circle id="SVGID_7_" cx="293.3" cy="45.4" r="44.6"/>
	</defs>
	<clipPath id="SVGID_8_">
		<use xlink:href="#SVGID_7_"  style="overflow:visible;"/>
	</clipPath>
	<path class="st5" d="M305.7,64.6L304,17.9c0-0.9-0.1-3.1-1.1-3.1h0c-0.7,0-1.1,1.2-1.1,3.5l-1.3,44.3c0,0.4-0.4,1.2-0.6,1.2
		c-0.5,0-1.1-1.1-1.1-1.6c0-0.4-1.4-44.1-1.4-45.4c0-1.3-0.4-2.1-1-2.1c-0.3,0-0.8,0.2-0.8,1.6l-0.3,3.3l-1.1,39.9l0,0.3
		c0,1.4,0,3.1-0.9,4l-0.2,0c-0.9-0.9-0.9-2.6-0.9-4l0-0.3l-1.1-39.9l-0.3-3.3c0-1.5-0.6-1.6-0.8-1.6c-0.6,0-1,0.8-1,2.1
		c0,1.3-1.4,44.9-1.4,45.4c0,0.6-0.6,1.6-1.1,1.6c-0.2,0-0.6-0.7-0.6-1.2l-1.3-44.3c0-2.3-0.4-3.5-1.1-3.5h0c-1,0-1.1,2.2-1.1,3.1
		l-1.8,48c0,0.3,0.4,7.8,2.9,10c0.8,0.7,1.2,1,1.6,1.4c0.5,0.4,1,0.9,2.5,2.2c1.7,1.4,2.2,11.2,2.2,14.9v27.9
		c-1.1,14.4-2.7,31-5.7,52c-0.7,4.8,5,8.9,8.6,9.3l0,0c0.1,0,0.2,0,0.3,0c0.1,0,0.2,0,0.3,0v0c3.6-0.5,9.3-4.5,8.6-9.3
		c-2.9-20.7-4.5-37.1-5.6-51.4l0-28.5c0-0.1,0.2-10,1.3-13c1.1-2.8,2.7-4,4.5-5.2l0.4-0.3C305.7,73.9,305.7,65,305.7,64.6z"/>
</g>
</svg>
